<svg width="12" height="14" viewBox="0 0 12 14" fill="none" xmlns="http://www.w3.org/2000/svg">
<path d="M8.02083 4.32341C6.61645 6.70592 5.22589 9.06497 3.82779 11.4366C4.34365 11.7343 4.85114 12.0328 5.36323 12.3226C5.98628 12.6752 5.84811 12.6873 6.47953 12.323C6.88778 12.0877 7.29477 11.849 7.72019 11.6011C7.44802 11.169 7.18298 10.7461 6.91542 10.3245C6.62441 9.86598 6.32921 9.40999 6.04239 8.94898C6.00889 8.89539 5.9867 8.79657 6.0135 8.75009C6.3401 8.18357 6.67675 7.62332 7.02847 7.0321C7.80184 8.24931 8.56139 9.44516 9.33435 10.6624C9.49513 10.5711 9.6421 10.4878 9.8121 10.3915C9.55585 9.97484 9.30713 9.56827 9.0559 9.16295C8.52455 8.30458 7.99068 7.44746 7.4631 6.58616C7.425 6.52419 7.39485 6.41323 7.42416 6.36089C7.70009 5.87099 7.98985 5.38863 8.29677 4.86816C9.1342 6.17121 9.95154 7.44286 10.7986 8.76098C10.8057 8.64416 10.8124 8.5847 10.8124 8.52524C10.8133 7.15729 10.8095 5.78976 10.8174 4.42181C10.8187 4.19487 10.7237 4.06339 10.5382 3.95704C9.09861 3.13342 7.6599 2.30896 6.22579 1.47572C6.01015 1.35052 5.83094 1.33251 5.60818 1.46274C4.16026 2.31064 2.70521 3.14933 1.25101 3.98886C1.10111 4.07553 1.00438 4.18524 1.0048 4.36864C1.00606 5.73575 1.00564 7.10286 1.04793 8.48798C1.11827 8.38497 1.19113 8.28364 1.25896 8.17938C1.93603 7.13301 2.61979 6.09124 3.2843 5.03691C3.51836 4.66509 3.83366 4.45238 4.25279 4.35524C4.69245 4.25349 5.13126 4.28154 5.63163 4.30499C4.22809 6.55643 2.85135 8.76517 1.46288 10.9927C1.06803 10.7671 0.671921 10.5472 0.285445 10.3115C0.235618 10.2813 0.217613 10.1675 0.217613 10.0921C0.2151 9.21989 0.220125 8.34771 0.221381 7.47552C0.222637 6.44254 0.226406 5.40999 0.219706 4.37701C0.216357 3.88795 0.436183 3.54669 0.851551 3.30761C2.33004 2.45468 3.80686 1.59798 5.28451 0.742961C5.66722 0.521459 6.06207 0.489218 6.45148 0.708207C7.27384 1.17047 8.09034 1.64404 8.90851 2.11384C9.60107 2.51162 10.2911 2.91317 10.9845 3.30886C11.4024 3.54753 11.6109 3.89716 11.6101 4.38287C11.6059 6.10673 11.6076 7.83017 11.6092 9.55403C11.6092 10.0167 11.4279 10.3642 11.0172 10.6004C9.48341 11.4831 7.95719 12.3787 6.42175 13.2584C6.08594 13.451 5.72333 13.4288 5.38542 13.2383C4.46759 12.7204 3.55353 12.1957 2.63822 11.6732C2.41002 11.5429 2.18307 11.4098 1.93938 11.2687C2.26765 10.7243 2.59425 10.1821 2.92169 9.64112C3.94629 7.94867 4.97382 6.25747 5.9934 4.56208C6.09599 4.39166 6.20025 4.3096 6.41421 4.31797C6.93593 4.33807 7.45933 4.32467 8.02083 4.32467V4.32341Z" fill="#1E1E1E"/>
</svg>
