<svg width="11" height="7" viewBox="0 0 11 7" fill="none" xmlns="http://www.w3.org/2000/svg">
    <path d="M10.7812 1.72462L6.02812 6.28989C5.73645 6.57004 5.26355 6.57004 4.97188 6.28989L0.218757 1.72462C-0.0729189 1.44447 -0.0729189 0.990258 0.218757 0.71011C0.510432 0.429963 0.98333 0.429963 1.27501 0.71011L4.75312 4.05077L5.49613 4.74396L6.24688 4.05077L9.72499 0.710111C10.0167 0.429963 10.4896 0.429963 10.7812 0.710111C11.0729 0.990259 11.0729 1.44447 10.7812 1.72462Z"
          fill="#EBEBEB"/>
    <path d="M10.7812 1.72462L6.02812 6.28989C5.73645 6.57004 5.26355 6.57004 4.97188 6.28989L0.218757 1.72462C-0.0729189 1.44447 -0.0729189 0.990258 0.218757 0.71011C0.510432 0.429963 0.98333 0.429963 1.27501 0.71011L4.75312 4.05077L5.49613 4.74396L6.24688 4.05077L9.72499 0.710111C10.0167 0.429963 10.4896 0.429963 10.7812 0.710111C11.0729 0.990259 11.0729 1.44447 10.7812 1.72462Z"
          stroke="#EBEBEB"/>
</svg>
