<svg width="26" height="26" viewBox="0 0 26 26" fill="none" xmlns="http://www.w3.org/2000/svg">
    <rect width="26" height="26" rx="13" fill="#1E1E1E"/>
    <path d="M22 13.8625V12.1375C21.9949 11.9796 21.9369 11.8281 21.8352 11.7073C21.7335 11.5865 21.5941 11.5034 21.4394 11.4715L20.0237 11.2271C19.9786 11.2191 19.9328 11.2166 19.8871 11.2199C19.7212 10.5771 19.4656 9.96092 19.1278 9.38946C19.163 9.35999 19.1944 9.32618 19.2212 9.28883L20.0488 8.11487C20.1361 7.98292 20.1763 7.82534 20.1628 7.6677C20.1493 7.51005 20.083 7.36159 19.9746 7.24637L18.7529 6.02449C18.6376 5.91652 18.4893 5.85058 18.332 5.83732C18.1746 5.82406 18.0174 5.86426 17.8857 5.95142L16.7119 6.77799C16.674 6.80457 16.6398 6.83598 16.6101 6.87142C16.0329 6.53076 15.4102 6.27383 14.7607 6.10835C14.773 6.03901 14.773 5.96805 14.7607 5.89871L14.5427 4.63729C14.5064 4.46126 14.4119 4.30261 14.2743 4.18697C14.1367 4.07133 13.9642 4.00546 13.7845 4H12.2155C12.0358 4.00546 11.8633 4.07133 11.7257 4.18697C11.5881 4.30261 11.4936 4.46126 11.4573 4.63729L11.2393 5.89871C11.2268 5.96803 11.2268 6.03902 11.2393 6.10835C10.5898 6.27383 9.96715 6.53076 9.38994 6.87142C9.36013 6.8364 9.32591 6.8054 9.28813 6.77918L8.11432 5.95142C7.98239 5.86411 7.82483 5.82394 7.66721 5.83742C7.50958 5.8509 7.36114 5.91725 7.24594 6.02569L6.02422 7.24757C5.91656 7.36275 5.8508 7.51083 5.83754 7.66795C5.82429 7.82507 5.86431 7.98207 5.95116 8.11367L6.77881 9.28764C6.80513 9.32534 6.83612 9.35955 6.87104 9.38946C6.53365 9.96098 6.27841 10.5772 6.11286 11.2199C6.06722 11.2167 6.02136 11.2191 5.97631 11.2271L4.56055 11.4715C4.40581 11.5032 4.2663 11.5862 4.16457 11.7071C4.06285 11.8279 4.00487 11.9796 4 12.1375V13.8625C4.00487 14.0204 4.06285 14.1721 4.16457 14.2929C4.2663 14.4138 4.40581 14.4968 4.56055 14.5286L5.97631 14.7729C6.02137 14.7809 6.06727 14.7829 6.11286 14.7789C6.27858 15.4216 6.5338 16.0377 6.87104 16.6093C6.83622 16.6394 6.80525 16.6736 6.77881 16.7112L5.95116 17.8851C5.86422 18.0169 5.82415 18.1741 5.8374 18.3314C5.85065 18.4888 5.91646 18.6371 6.02422 18.7524L7.24594 19.9743C7.36124 20.0826 7.50967 20.1488 7.66724 20.1622C7.8248 20.1757 7.98231 20.1357 8.11432 20.0486L9.28813 19.2208C9.32598 19.1942 9.36021 19.1628 9.38994 19.1274C9.96133 19.4652 10.5774 19.7209 11.2201 19.8869C11.2161 19.9324 11.2181 19.9784 11.2261 20.0234L11.4705 21.4394C11.5022 21.5941 11.5852 21.7337 11.706 21.8354C11.8269 21.9371 11.9785 21.9951 12.1364 22H13.8636C14.0215 21.9951 14.1731 21.9371 14.294 21.8354C14.4148 21.7337 14.4978 21.5941 14.5295 21.4394L14.7739 20.0234C14.7817 19.9783 14.7837 19.9325 14.7799 19.8869C15.4225 19.7208 16.0386 19.4651 16.6101 19.1274C16.6398 19.1628 16.674 19.1942 16.7119 19.2208L17.8857 20.0486C18.0175 20.1356 18.1748 20.1756 18.3322 20.1621C18.4895 20.1486 18.6378 20.0825 18.7529 19.9743L19.9746 18.7524C20.0827 18.6373 20.1489 18.4891 20.1623 18.3317C20.1758 18.1743 20.1358 18.017 20.0488 17.8851L19.2212 16.7112C19.1944 16.6735 19.163 16.6393 19.1278 16.6093C19.4656 16.0379 19.7212 15.4217 19.8871 14.7789C19.9327 14.7829 19.9786 14.7809 20.0237 14.7729L21.4394 14.5286C21.5941 14.4966 21.7335 14.4135 21.8352 14.2927C21.9369 14.1719 21.9949 14.0204 22 13.8625ZM16.0651 13C16.0648 13.6062 15.8849 14.1987 15.548 14.7026C15.2111 15.2066 14.7324 15.5993 14.1724 15.8312C13.6124 16.063 12.9962 16.1236 12.4017 16.0053C11.8073 15.887 11.2612 15.5951 10.8327 15.1664C10.4041 14.7378 10.1122 14.1917 9.99388 13.5971C9.87557 13.0026 9.93617 12.3863 10.168 11.8262C10.3998 11.2662 10.7925 10.7874 11.2964 10.4504C11.8003 10.1135 12.3927 9.93355 12.9988 9.93332C13.4015 9.93316 13.8003 10.0124 14.1724 10.1664C14.5445 10.3205 14.8826 10.5464 15.1673 10.8312C15.4521 11.116 15.678 11.4541 15.832 11.8262C15.986 12.1984 16.0652 12.5972 16.0651 13Z"
          fill="#EBEBEB"/>
</svg>
