<svg width="16" height="16" viewBox="0 0 16 16" fill="none" xmlns="http://www.w3.org/2000/svg">
<path id="COG" d="M16 8.76667V7.23333C15.9955 7.09302 15.9439 6.95831 15.8535 6.85091C15.7631 6.74352 15.6392 6.66968 15.5017 6.64129L14.2433 6.42407C14.2032 6.41694 14.1625 6.41479 14.1219 6.41768C13.9744 5.84632 13.7472 5.29859 13.4469 4.79063C13.4782 4.76443 13.5061 4.73438 13.5299 4.70118L14.2656 3.65766C14.3432 3.54037 14.3789 3.4003 14.367 3.26017C14.355 3.12005 14.296 2.98808 14.1996 2.88566L13.1137 1.79955C13.0112 1.70357 12.8794 1.64496 12.7395 1.63317C12.5996 1.62138 12.4599 1.65712 12.3428 1.73459L11.2994 2.46932C11.2658 2.49295 11.2354 2.52087 11.2089 2.55238C10.6959 2.24956 10.1424 2.02118 9.56508 1.87408C9.57599 1.81245 9.57599 1.74938 9.56508 1.68774L9.37131 0.566484C9.33905 0.410011 9.25498 0.268986 9.13269 0.166195C9.01041 0.0634041 8.85703 0.00485134 8.69736 0H7.30264C7.14297 0.00485134 6.9896 0.0634041 6.86731 0.166195C6.74502 0.268986 6.66095 0.410011 6.62869 0.566484L6.43492 1.68774C6.42386 1.74936 6.42386 1.81246 6.43492 1.87408C5.85762 2.02118 5.30413 2.24956 4.79106 2.55238C4.76456 2.52125 4.73414 2.49369 4.70056 2.47039L3.65717 1.73459C3.5399 1.65699 3.39985 1.62128 3.25974 1.63326C3.11963 1.64525 2.98768 1.70422 2.88528 1.80061L1.79931 2.88673C1.70361 2.98911 1.64515 3.12074 1.63337 3.2604C1.62159 3.40006 1.65716 3.53962 1.73436 3.6566L2.47006 4.70012C2.49345 4.73363 2.52099 4.76405 2.55204 4.79063C2.25213 5.29865 2.02526 5.84637 1.87809 6.41768C1.83753 6.41482 1.79676 6.41697 1.75672 6.42407L0.49827 6.64129C0.360721 6.6695 0.236708 6.74329 0.146287 6.85073C0.0558667 6.95817 0.00432584 7.09297 0 7.23333V8.76667C0.00432584 8.90704 0.0558667 9.04184 0.146287 9.14927C0.236708 9.25671 0.360721 9.3305 0.49827 9.35871L1.75672 9.57593C1.79677 9.58301 1.83758 9.5848 1.87809 9.58126C2.0254 10.1525 2.25227 10.7002 2.55204 11.2083C2.52109 11.235 2.49355 11.2654 2.47006 11.2988L1.73436 12.3423C1.65708 12.4595 1.62146 12.5992 1.63324 12.7391C1.64503 12.8789 1.70352 13.0107 1.79931 13.1133L2.88528 14.1994C2.98777 14.2956 3.1197 14.3545 3.25977 14.3664C3.39983 14.3784 3.53984 14.3428 3.65717 14.2654L4.70056 13.5296C4.73421 13.506 4.76463 13.4781 4.79106 13.4466C5.29896 13.7468 5.84661 13.9741 6.41789 14.1217C6.4143 14.1622 6.41609 14.203 6.42321 14.243L6.64041 15.5017C6.66861 15.6392 6.74239 15.7633 6.84982 15.8537C6.95724 15.9441 7.09202 15.9957 7.23237 16H8.76763C8.90798 15.9957 9.04276 15.9441 9.15018 15.8537C9.25761 15.7633 9.33139 15.6392 9.3596 15.5017L9.57679 14.243C9.58373 14.203 9.58552 14.1622 9.58211 14.1217C10.1534 13.974 10.701 13.7468 11.2089 13.4466C11.2354 13.4781 11.2658 13.506 11.2994 13.5296L12.3428 14.2654C12.46 14.3427 12.5998 14.3783 12.7397 14.3663C12.8796 14.3543 13.0113 14.2955 13.1137 14.1994L14.1996 13.1133C14.2958 13.0109 14.3546 12.8792 14.3665 12.7393C14.3785 12.5994 14.343 12.4595 14.2656 12.3423L13.5299 11.2988C13.5061 11.2653 13.4782 11.2349 13.4469 11.2083C13.7472 10.7003 13.9744 10.1526 14.1219 9.58126C14.1624 9.58483 14.2032 9.58304 14.2433 9.57593L15.5017 9.35871C15.6392 9.33033 15.7631 9.25648 15.8535 9.14908C15.9439 9.04169 15.9955 8.90698 16 8.76667ZM10.7245 8C10.7243 8.53884 10.5644 9.06552 10.2649 9.51346C9.96545 9.9614 9.53993 10.3105 9.04214 10.5166C8.54434 10.7227 7.99662 10.7766 7.46821 10.6714C6.93981 10.5662 6.45444 10.3067 6.07348 9.92571C5.69251 9.5447 5.43305 9.05927 5.32789 8.53079C5.22273 8.00232 5.27659 7.45452 5.48267 6.95666C5.68875 6.4588 6.0378 6.03322 6.48568 5.73373C6.93356 5.43423 7.46017 5.27427 7.99894 5.27406C8.3569 5.27392 8.71139 5.34433 9.04214 5.48127C9.37288 5.61822 9.6734 5.819 9.92652 6.07216C10.1796 6.32531 10.3804 6.62587 10.5173 6.95666C10.6543 7.28745 10.7247 7.64198 10.7245 8Z" fill="#EBEBEB"/>
</svg>
