<svg width="15" height="16" viewBox="0 0 15 16" fill="none" xmlns="http://www.w3.org/2000/svg">
<g id="Disconnect Button" clip-path="url(#clip0_3146_4985)">
<g id="lOMZlV">
<g id="Group">
<path id="Vector" d="M14.9995 8.83749C15.0068 12.1844 12.5532 15.1162 9.14712 15.8289C5.65905 16.559 2.12156 14.8797 0.668699 11.8027C-0.785364 8.72216 0.188834 5.07998 3.00533 3.07551C3.66122 2.60842 4.3545 2.63956 4.76684 3.15394C5.1816 3.67293 5.03812 4.31994 4.39911 4.80088C2.57007 6.17794 1.84666 8.27583 2.50497 10.2895C3.17292 12.3286 4.99954 13.6826 7.28794 13.8337C9.41719 13.9744 11.5742 12.6146 12.382 10.6228C13.1958 8.61721 12.552 6.30942 10.7989 4.94389C9.95614 4.28765 9.77649 3.66486 10.2732 3.11242C10.7603 2.57036 11.4235 2.61649 12.2349 3.2462C13.9952 4.61288 14.9935 6.6335 14.9983 8.83634L14.9995 8.83749Z" fill="#EBEBEB"/>
<path id="Vector_2" d="M6.37322 4.15542C6.37322 3.1774 6.36478 2.19939 6.37563 1.22137C6.38527 0.450957 6.80968 0.00231533 7.49692 8.69594e-06C8.18296 -0.00229794 8.63991 0.454417 8.64353 1.20753C8.65438 3.20278 8.65318 5.19687 8.64112 7.19211C8.6363 7.94523 8.18296 8.41578 7.51018 8.42155C6.8362 8.42731 6.38407 7.96022 6.37322 7.2048C6.35995 6.18872 6.3696 5.17149 6.3696 4.15542H6.37201H6.37322Z" fill="#EBEBEB"/>
</g>
</g>
</g>
<defs>
<clipPath id="clip0_3146_4985">
<rect width="15" height="16" fill="white"/>
</clipPath>
</defs>
</svg>
