<svg width="33" height="33" viewBox="0 0 33 33" fill="none" xmlns="http://www.w3.org/2000/svg">
<path fill-rule="evenodd" clip-rule="evenodd" d="M16.6121 32.1519C25.4486 32.1519 32.6121 24.9885 32.6121 16.1519C32.6121 7.31536 25.4486 0.151917 16.6121 0.151917C7.77551 0.151917 0.612061 7.31536 0.612061 16.1519C0.612061 24.9885 7.77551 32.1519 16.6121 32.1519ZM11.4938 12.5808C12.5958 10.7506 14.1952 8.09122 15.0482 6.67104C15.9011 5.25087 16.6202 4.09479 16.6461 4.10196C16.6721 4.10909 16.9549 4.5489 17.2746 5.07925C17.5944 5.60964 18.2715 6.73387 18.7792 7.57758L21.7057 12.4392C23.9859 16.227 24.0729 16.3692 24.0409 16.405C24.0389 16.4073 24.0363 16.4091 24.0338 16.4115C24.0155 16.4288 22.7171 17.2014 21.1484 18.1284C19.5797 19.0554 17.9365 20.0273 17.497 20.2881C17.0575 20.5489 16.6736 20.7623 16.644 20.7623C16.6143 20.7623 16.4648 20.6873 16.3116 20.5956C16.1585 20.5039 15.5665 20.1528 14.9961 19.8154C14.4256 19.4781 13.0148 18.6434 11.861 17.9606C10.7071 17.2778 9.64112 16.6473 9.49201 16.5594C9.34294 16.4715 9.22093 16.3909 9.22093 16.3803L9.22085 16.3784C9.2198 16.3572 9.23331 16.3352 11.4938 12.5808ZM10.707 20.0621C10.0634 19.1535 9.44269 18.2774 9.32761 18.1151C9.12513 17.8297 9.13003 17.7391 9.34006 17.8844C9.42732 17.9448 14.8622 21.1624 15.9804 21.8157C16.2625 21.9805 16.5132 22.1154 16.5375 22.1154C16.5782 22.1154 16.889 21.9345 18.9326 20.7213C22.0418 18.8754 23.8549 17.8187 23.8916 17.831C23.9155 17.8389 23.4074 18.5884 22.7625 19.4966C19.8244 23.634 17.9159 26.3247 17.2649 27.247C16.706 28.039 16.5449 28.2377 16.4954 28.1965C16.4608 28.1679 15.7994 27.2499 15.0255 26.1565C14.2515 25.0631 13.2265 23.6163 12.7477 22.9414C12.2688 22.2664 11.3505 20.9708 10.707 20.0621Z" fill="#1E1E1E"/>
</svg>
