<svg width="8" height="12" viewBox="0 0 8 12" fill="none" xmlns="http://www.w3.org/2000/svg">
<path fill-rule="evenodd" clip-rule="evenodd" d="M3.09766 1.61131C2.69872 2.27555 1.95062 3.51943 1.43521 4.37546C0.346998 6.18281 0.372113 6.14084 0.372113 6.15256C0.372113 6.15753 0.42918 6.19522 0.498903 6.23632C0.568649 6.27743 1.06725 6.57236 1.60694 6.8917C2.14662 7.21106 2.80648 7.60147 3.07329 7.75925C3.3401 7.91706 3.61699 8.08127 3.68861 8.12414C3.76023 8.16703 3.83017 8.20212 3.84404 8.20212C3.85791 8.20212 4.03747 8.10233 4.24305 7.98033C4.44862 7.85836 5.21715 7.40379 5.95087 6.9702C6.6846 6.53661 7.29192 6.17524 7.30047 6.16713C7.31974 6.1489 7.3464 6.1944 6.21155 4.30923C5.69621 3.4532 5.08028 2.42994 4.84277 2.03531C4.60527 1.64069 4.28858 1.11486 4.13901 0.866785C3.98947 0.618729 3.85718 0.413017 3.84506 0.409684C3.83293 0.406328 3.49659 0.947057 3.09766 1.61131ZM0.422013 6.96398C0.475839 7.03988 0.766155 7.44967 1.06717 7.87465C1.36818 8.29963 1.7977 8.90564 2.02166 9.22134C2.24563 9.53704 2.72505 10.2137 3.08705 10.7251C3.44903 11.2365 3.7584 11.6659 3.77454 11.6793C3.79771 11.6985 3.87306 11.6056 4.13449 11.2352C4.43896 10.8038 5.33163 9.54532 6.70584 7.61012C7.00747 7.18536 7.24512 6.83478 7.23397 6.83107C7.21677 6.82534 6.36873 7.31959 4.9145 8.18293C3.95866 8.75037 3.81328 8.83499 3.79423 8.83499C3.78288 8.83499 3.66563 8.77192 3.53371 8.69483C3.01067 8.38926 0.46865 6.88432 0.427835 6.85609C0.3296 6.78811 0.327307 6.83048 0.422013 6.96398Z" fill="#1E1E1E"/>
</svg>
