<svg width="17" height="16" viewBox="0 0 17 16" fill="none" xmlns="http://www.w3.org/2000/svg">
    <mask id="path-1-outside-1_2286_73772" maskUnits="userSpaceOnUse" x="0.5" y="0" width="16" height="16" fill="black">
        <rect fill="white" x="0.5" width="16" height="16"/>
        <path fill-rule="evenodd" clip-rule="evenodd"
              d="M8.23214 2.00202C8.21563 2.0032 8.15486 2.0071 8.09709 2.01067C7.59549 2.04173 7.07342 2.14363 6.59059 2.30473C6.01346 2.49728 5.45176 2.78631 4.96303 3.14223C4.70586 3.3295 4.4935 3.51209 4.25252 3.75313C4.02702 3.97869 3.8754 4.15185 3.70187 4.38202C3.26538 4.96096 2.93339 5.62335 2.73439 6.31231C2.61598 6.72226 2.54809 7.10021 2.5112 7.55468C2.49798 7.71754 2.49593 8.24637 2.50792 8.40072C2.57351 9.24488 2.76504 9.95581 3.11896 10.6688C3.35719 11.1487 3.63138 11.5582 3.9889 11.9679C4.16104 12.1651 4.4719 12.4655 4.68195 12.6375C5.44061 13.2588 6.32204 13.6798 7.27482 13.8757C7.83036 13.99 8.42683 14.0266 8.98839 13.9808C10.2099 13.8813 11.3665 13.4168 12.3005 12.6507C12.5924 12.4112 12.9099 12.0949 13.1394 11.8149C13.5497 11.3141 13.8652 10.7739 14.0993 10.1709C14.3158 9.61347 14.4379 9.06328 14.4894 8.41272C14.5 8.27946 14.5037 7.86802 14.4957 7.71069C14.4585 6.97304 14.3017 6.28881 14.0176 5.62399C13.9569 5.48192 13.8202 5.20436 13.7444 5.06905C13.5283 4.68367 13.2858 4.34231 12.9898 4.00681C12.8949 3.89915 12.6092 3.61307 12.5026 3.51879C12.0851 3.14973 11.6679 2.8674 11.1821 2.62521C10.4827 2.27647 9.76083 2.07851 8.94938 2.01291C8.84072 2.00413 8.31434 1.99613 8.23214 2.00202ZM7.26281 3.76298C7.29775 3.77876 7.33177 3.81182 7.35186 3.84952L7.36785 3.87952V4.13153V4.38355L7.34923 4.42283C7.31396 4.49724 7.27683 4.52652 7.15934 4.57257C6.55269 4.81032 6.03847 5.17749 5.63414 5.6616C5.32516 6.03155 5.10291 6.44051 4.94122 6.93665C4.70451 7.663 4.70178 8.44614 4.93338 9.18432C4.99075 9.36716 5.0597 9.53754 5.15049 9.72077C5.28845 9.99923 5.43897 10.2302 5.63969 10.4714C5.73361 10.5842 5.97725 10.8291 6.08342 10.9174C6.31518 11.11 6.55693 11.2697 6.80508 11.3941C6.90706 11.4452 7.04817 11.5079 7.13698 11.5417C7.17813 11.5573 7.2172 11.5729 7.2238 11.5764C7.26383 11.5972 7.32249 11.6646 7.35041 11.7217L7.37085 11.7635V11.9872V12.2109L7.34304 12.2652C7.31379 12.3223 7.29277 12.3439 7.25232 12.3583C7.20846 12.374 7.18262 12.3693 7.04074 12.3198C6.47269 12.1217 6.00187 11.8534 5.55437 11.4729C5.44736 11.382 5.20137 11.1395 5.10991 11.0348C4.63401 10.4903 4.2979 9.84988 4.12388 9.15606C3.91051 8.30532 3.94682 7.42528 4.22935 6.5997C4.52355 5.74002 5.06969 4.99164 5.79832 4.44973C5.99271 4.30517 6.1982 4.17813 6.42553 4.06197C6.62998 3.95751 6.8079 3.88167 7.01973 3.8087C7.07255 3.7905 7.12792 3.77003 7.14277 3.7632C7.17817 3.74692 7.22707 3.74683 7.26281 3.76298ZM9.95472 3.80101C10.3741 3.95068 10.7345 4.13478 11.0757 4.37375C11.302 4.53222 11.4714 4.67516 11.6807 4.88424C11.9207 5.12398 12.0924 5.33359 12.2657 5.5986C12.8926 6.55705 13.1391 7.72419 12.9496 8.83673C12.754 9.98569 12.1299 11.0061 11.2001 11.6977C11.0058 11.8422 10.8003 11.9693 10.5729 12.0854C10.3685 12.1899 10.1906 12.2657 9.97872 12.3387C9.92591 12.3569 9.87054 12.3774 9.85568 12.3842C9.78088 12.4186 9.69118 12.3816 9.6466 12.2979L9.63061 12.2679V12.0159V11.7639L9.64923 11.7246C9.68643 11.6461 9.71752 11.6232 9.86905 11.563C10.5137 11.3068 11.0678 10.8864 11.4767 10.3436C11.732 10.0045 11.9147 9.64809 12.0572 9.21075C12.1928 8.79486 12.255 8.33555 12.2331 7.9117C12.206 7.38535 12.0846 6.91177 11.8575 6.44683C11.6621 6.04653 11.4313 5.72595 11.1153 5.41543C10.9526 5.2556 10.8008 5.12988 10.6179 5.00348C10.4019 4.85416 10.1193 4.70496 9.87369 4.61054C9.83573 4.59594 9.79521 4.57993 9.78366 4.57495C9.74088 4.55653 9.67718 4.48467 9.64857 4.42255L9.63061 4.38355L9.62885 4.149L9.62709 3.91446L9.65377 3.86099C9.68349 3.80143 9.69628 3.78701 9.73564 3.7687C9.78107 3.74757 9.82181 3.75358 9.95472 3.80101ZM8.70009 5.05577C8.76968 5.07389 8.82639 5.11502 8.8546 5.16783C8.86833 5.19355 8.86836 5.19396 8.87135 5.52059L8.87435 5.84761L8.94638 5.85826C9.42131 5.92849 9.80572 6.25127 9.95476 6.70496C9.99244 6.81966 10.0035 6.881 9.99517 6.92951C9.98325 6.99907 9.93754 7.04824 9.86831 7.06597C9.83771 7.07381 9.79543 7.07503 9.60815 7.0735C9.36475 7.0715 9.36814 7.07194 9.31448 7.0349C9.28373 7.01367 9.26524 6.9846 9.23796 6.91464C9.18848 6.7877 9.13644 6.70266 9.0639 6.63018C8.98766 6.55401 8.88963 6.49773 8.77832 6.46623C8.56893 6.40696 8.26113 6.40948 8.06944 6.47204C7.76739 6.57061 7.63449 6.79885 7.68363 7.13466C7.70148 7.25665 7.75956 7.35454 7.85816 7.42881C7.99666 7.53314 8.24978 7.60909 8.60726 7.65358C9.45866 7.75952 9.88835 7.98572 10.0599 8.41825C10.1062 8.53521 10.132 8.65805 10.1443 8.82073C10.1741 9.21366 10.0534 9.56004 9.79324 9.82779C9.57666 10.0507 9.29242 10.1963 8.93587 10.2668L8.90136 10.2736V10.5689C8.90136 10.838 8.90038 10.8676 8.89023 10.9042C8.86936 10.9795 8.82828 11.0316 8.76843 11.0587C8.74398 11.0698 8.72841 11.0706 8.52497 11.0707C8.31693 11.0708 8.30613 11.0703 8.27288 11.0579C8.21103 11.0349 8.16841 11.0007 8.14308 10.9538C8.1303 10.9302 8.13008 10.925 8.12841 10.6021L8.12671 10.2744L8.05339 10.2608C7.68543 10.1928 7.40668 10.0637 7.19281 9.8624C7.08783 9.76358 7.00501 9.64948 6.93539 9.50776C6.88469 9.40454 6.85668 9.32702 6.82699 9.20775C6.78725 9.04807 6.79275 8.98376 6.8511 8.92566C6.90259 8.87438 6.90571 8.87393 7.19732 8.87598L7.44588 8.87774L7.47889 8.89633C7.49808 8.90714 7.52135 8.92724 7.53447 8.94433C7.55769 8.97458 7.55959 8.97976 7.59583 9.11133C7.68358 9.42996 7.89603 9.60171 8.27233 9.65827C8.37037 9.673 8.58915 9.67621 8.67509 9.66418C9.01094 9.61717 9.2544 9.43228 9.32707 9.16905C9.35674 9.06157 9.35679 8.91533 9.32719 8.8089C9.28219 8.64709 9.15949 8.53363 8.94141 8.4522C8.78722 8.39462 8.53384 8.33661 8.31017 8.30769C7.9477 8.26083 7.60935 8.16263 7.40117 8.04388C7.30184 7.98721 7.24262 7.94246 7.1667 7.86669C6.96993 7.67032 6.87816 7.41785 6.87663 7.06866C6.87606 6.93959 6.88307 6.87451 6.90897 6.76865C7.01174 6.34844 7.34849 6.02196 7.82171 5.88375C7.89373 5.86272 8.01038 5.83681 8.06558 5.8296L8.09709 5.82548V5.54229C8.09709 5.31063 8.09872 5.25285 8.10605 5.22474C8.13113 5.12849 8.19065 5.06614 8.27031 5.05269C8.28562 5.0501 8.38065 5.04767 8.48146 5.04728C8.62853 5.04671 8.67174 5.04839 8.70009 5.05577Z"/>
    </mask>
    <path fill-rule="evenodd" clip-rule="evenodd"
          d="M8.23214 2.00202C8.21563 2.0032 8.15486 2.0071 8.09709 2.01067C7.59549 2.04173 7.07342 2.14363 6.59059 2.30473C6.01346 2.49728 5.45176 2.78631 4.96303 3.14223C4.70586 3.3295 4.4935 3.51209 4.25252 3.75313C4.02702 3.97869 3.8754 4.15185 3.70187 4.38202C3.26538 4.96096 2.93339 5.62335 2.73439 6.31231C2.61598 6.72226 2.54809 7.10021 2.5112 7.55468C2.49798 7.71754 2.49593 8.24637 2.50792 8.40072C2.57351 9.24488 2.76504 9.95581 3.11896 10.6688C3.35719 11.1487 3.63138 11.5582 3.9889 11.9679C4.16104 12.1651 4.4719 12.4655 4.68195 12.6375C5.44061 13.2588 6.32204 13.6798 7.27482 13.8757C7.83036 13.99 8.42683 14.0266 8.98839 13.9808C10.2099 13.8813 11.3665 13.4168 12.3005 12.6507C12.5924 12.4112 12.9099 12.0949 13.1394 11.8149C13.5497 11.3141 13.8652 10.7739 14.0993 10.1709C14.3158 9.61347 14.4379 9.06328 14.4894 8.41272C14.5 8.27946 14.5037 7.86802 14.4957 7.71069C14.4585 6.97304 14.3017 6.28881 14.0176 5.62399C13.9569 5.48192 13.8202 5.20436 13.7444 5.06905C13.5283 4.68367 13.2858 4.34231 12.9898 4.00681C12.8949 3.89915 12.6092 3.61307 12.5026 3.51879C12.0851 3.14973 11.6679 2.8674 11.1821 2.62521C10.4827 2.27647 9.76083 2.07851 8.94938 2.01291C8.84072 2.00413 8.31434 1.99613 8.23214 2.00202ZM7.26281 3.76298C7.29775 3.77876 7.33177 3.81182 7.35186 3.84952L7.36785 3.87952V4.13153V4.38355L7.34923 4.42283C7.31396 4.49724 7.27683 4.52652 7.15934 4.57257C6.55269 4.81032 6.03847 5.17749 5.63414 5.6616C5.32516 6.03155 5.10291 6.44051 4.94122 6.93665C4.70451 7.663 4.70178 8.44614 4.93338 9.18432C4.99075 9.36716 5.0597 9.53754 5.15049 9.72077C5.28845 9.99923 5.43897 10.2302 5.63969 10.4714C5.73361 10.5842 5.97725 10.8291 6.08342 10.9174C6.31518 11.11 6.55693 11.2697 6.80508 11.3941C6.90706 11.4452 7.04817 11.5079 7.13698 11.5417C7.17813 11.5573 7.2172 11.5729 7.2238 11.5764C7.26383 11.5972 7.32249 11.6646 7.35041 11.7217L7.37085 11.7635V11.9872V12.2109L7.34304 12.2652C7.31379 12.3223 7.29277 12.3439 7.25232 12.3583C7.20846 12.374 7.18262 12.3693 7.04074 12.3198C6.47269 12.1217 6.00187 11.8534 5.55437 11.4729C5.44736 11.382 5.20137 11.1395 5.10991 11.0348C4.63401 10.4903 4.2979 9.84988 4.12388 9.15606C3.91051 8.30532 3.94682 7.42528 4.22935 6.5997C4.52355 5.74002 5.06969 4.99164 5.79832 4.44973C5.99271 4.30517 6.1982 4.17813 6.42553 4.06197C6.62998 3.95751 6.8079 3.88167 7.01973 3.8087C7.07255 3.7905 7.12792 3.77003 7.14277 3.7632C7.17817 3.74692 7.22707 3.74683 7.26281 3.76298ZM9.95472 3.80101C10.3741 3.95068 10.7345 4.13478 11.0757 4.37375C11.302 4.53222 11.4714 4.67516 11.6807 4.88424C11.9207 5.12398 12.0924 5.33359 12.2657 5.5986C12.8926 6.55705 13.1391 7.72419 12.9496 8.83673C12.754 9.98569 12.1299 11.0061 11.2001 11.6977C11.0058 11.8422 10.8003 11.9693 10.5729 12.0854C10.3685 12.1899 10.1906 12.2657 9.97872 12.3387C9.92591 12.3569 9.87054 12.3774 9.85568 12.3842C9.78088 12.4186 9.69118 12.3816 9.6466 12.2979L9.63061 12.2679V12.0159V11.7639L9.64923 11.7246C9.68643 11.6461 9.71752 11.6232 9.86905 11.563C10.5137 11.3068 11.0678 10.8864 11.4767 10.3436C11.732 10.0045 11.9147 9.64809 12.0572 9.21075C12.1928 8.79486 12.255 8.33555 12.2331 7.9117C12.206 7.38535 12.0846 6.91177 11.8575 6.44683C11.6621 6.04653 11.4313 5.72595 11.1153 5.41543C10.9526 5.2556 10.8008 5.12988 10.6179 5.00348C10.4019 4.85416 10.1193 4.70496 9.87369 4.61054C9.83573 4.59594 9.79521 4.57993 9.78366 4.57495C9.74088 4.55653 9.67718 4.48467 9.64857 4.42255L9.63061 4.38355L9.62885 4.149L9.62709 3.91446L9.65377 3.86099C9.68349 3.80143 9.69628 3.78701 9.73564 3.7687C9.78107 3.74757 9.82181 3.75358 9.95472 3.80101ZM8.70009 5.05577C8.76968 5.07389 8.82639 5.11502 8.8546 5.16783C8.86833 5.19355 8.86836 5.19396 8.87135 5.52059L8.87435 5.84761L8.94638 5.85826C9.42131 5.92849 9.80572 6.25127 9.95476 6.70496C9.99244 6.81966 10.0035 6.881 9.99517 6.92951C9.98325 6.99907 9.93754 7.04824 9.86831 7.06597C9.83771 7.07381 9.79543 7.07503 9.60815 7.0735C9.36475 7.0715 9.36814 7.07194 9.31448 7.0349C9.28373 7.01367 9.26524 6.9846 9.23796 6.91464C9.18848 6.7877 9.13644 6.70266 9.0639 6.63018C8.98766 6.55401 8.88963 6.49773 8.77832 6.46623C8.56893 6.40696 8.26113 6.40948 8.06944 6.47204C7.76739 6.57061 7.63449 6.79885 7.68363 7.13466C7.70148 7.25665 7.75956 7.35454 7.85816 7.42881C7.99666 7.53314 8.24978 7.60909 8.60726 7.65358C9.45866 7.75952 9.88835 7.98572 10.0599 8.41825C10.1062 8.53521 10.132 8.65805 10.1443 8.82073C10.1741 9.21366 10.0534 9.56004 9.79324 9.82779C9.57666 10.0507 9.29242 10.1963 8.93587 10.2668L8.90136 10.2736V10.5689C8.90136 10.838 8.90038 10.8676 8.89023 10.9042C8.86936 10.9795 8.82828 11.0316 8.76843 11.0587C8.74398 11.0698 8.72841 11.0706 8.52497 11.0707C8.31693 11.0708 8.30613 11.0703 8.27288 11.0579C8.21103 11.0349 8.16841 11.0007 8.14308 10.9538C8.1303 10.9302 8.13008 10.925 8.12841 10.6021L8.12671 10.2744L8.05339 10.2608C7.68543 10.1928 7.40668 10.0637 7.19281 9.8624C7.08783 9.76358 7.00501 9.64948 6.93539 9.50776C6.88469 9.40454 6.85668 9.32702 6.82699 9.20775C6.78725 9.04807 6.79275 8.98376 6.8511 8.92566C6.90259 8.87438 6.90571 8.87393 7.19732 8.87598L7.44588 8.87774L7.47889 8.89633C7.49808 8.90714 7.52135 8.92724 7.53447 8.94433C7.55769 8.97458 7.55959 8.97976 7.59583 9.11133C7.68358 9.42996 7.89603 9.60171 8.27233 9.65827C8.37037 9.673 8.58915 9.67621 8.67509 9.66418C9.01094 9.61717 9.2544 9.43228 9.32707 9.16905C9.35674 9.06157 9.35679 8.91533 9.32719 8.8089C9.28219 8.64709 9.15949 8.53363 8.94141 8.4522C8.78722 8.39462 8.53384 8.33661 8.31017 8.30769C7.9477 8.26083 7.60935 8.16263 7.40117 8.04388C7.30184 7.98721 7.24262 7.94246 7.1667 7.86669C6.96993 7.67032 6.87816 7.41785 6.87663 7.06866C6.87606 6.93959 6.88307 6.87451 6.90897 6.76865C7.01174 6.34844 7.34849 6.02196 7.82171 5.88375C7.89373 5.86272 8.01038 5.83681 8.06558 5.8296L8.09709 5.82548V5.54229C8.09709 5.31063 8.09872 5.25285 8.10605 5.22474C8.13113 5.12849 8.19065 5.06614 8.27031 5.05269C8.28562 5.0501 8.38065 5.04767 8.48146 5.04728C8.62853 5.04671 8.67174 5.04839 8.70009 5.05577Z"
          fill="#1E1E1E"/>
    <path fill-rule="evenodd" clip-rule="evenodd"
          d="M8.23214 2.00202C8.21563 2.0032 8.15486 2.0071 8.09709 2.01067C7.59549 2.04173 7.07342 2.14363 6.59059 2.30473C6.01346 2.49728 5.45176 2.78631 4.96303 3.14223C4.70586 3.3295 4.4935 3.51209 4.25252 3.75313C4.02702 3.97869 3.8754 4.15185 3.70187 4.38202C3.26538 4.96096 2.93339 5.62335 2.73439 6.31231C2.61598 6.72226 2.54809 7.10021 2.5112 7.55468C2.49798 7.71754 2.49593 8.24637 2.50792 8.40072C2.57351 9.24488 2.76504 9.95581 3.11896 10.6688C3.35719 11.1487 3.63138 11.5582 3.9889 11.9679C4.16104 12.1651 4.4719 12.4655 4.68195 12.6375C5.44061 13.2588 6.32204 13.6798 7.27482 13.8757C7.83036 13.99 8.42683 14.0266 8.98839 13.9808C10.2099 13.8813 11.3665 13.4168 12.3005 12.6507C12.5924 12.4112 12.9099 12.0949 13.1394 11.8149C13.5497 11.3141 13.8652 10.7739 14.0993 10.1709C14.3158 9.61347 14.4379 9.06328 14.4894 8.41272C14.5 8.27946 14.5037 7.86802 14.4957 7.71069C14.4585 6.97304 14.3017 6.28881 14.0176 5.62399C13.9569 5.48192 13.8202 5.20436 13.7444 5.06905C13.5283 4.68367 13.2858 4.34231 12.9898 4.00681C12.8949 3.89915 12.6092 3.61307 12.5026 3.51879C12.0851 3.14973 11.6679 2.8674 11.1821 2.62521C10.4827 2.27647 9.76083 2.07851 8.94938 2.01291C8.84072 2.00413 8.31434 1.99613 8.23214 2.00202ZM7.26281 3.76298C7.29775 3.77876 7.33177 3.81182 7.35186 3.84952L7.36785 3.87952V4.13153V4.38355L7.34923 4.42283C7.31396 4.49724 7.27683 4.52652 7.15934 4.57257C6.55269 4.81032 6.03847 5.17749 5.63414 5.6616C5.32516 6.03155 5.10291 6.44051 4.94122 6.93665C4.70451 7.663 4.70178 8.44614 4.93338 9.18432C4.99075 9.36716 5.0597 9.53754 5.15049 9.72077C5.28845 9.99923 5.43897 10.2302 5.63969 10.4714C5.73361 10.5842 5.97725 10.8291 6.08342 10.9174C6.31518 11.11 6.55693 11.2697 6.80508 11.3941C6.90706 11.4452 7.04817 11.5079 7.13698 11.5417C7.17813 11.5573 7.2172 11.5729 7.2238 11.5764C7.26383 11.5972 7.32249 11.6646 7.35041 11.7217L7.37085 11.7635V11.9872V12.2109L7.34304 12.2652C7.31379 12.3223 7.29277 12.3439 7.25232 12.3583C7.20846 12.374 7.18262 12.3693 7.04074 12.3198C6.47269 12.1217 6.00187 11.8534 5.55437 11.4729C5.44736 11.382 5.20137 11.1395 5.10991 11.0348C4.63401 10.4903 4.2979 9.84988 4.12388 9.15606C3.91051 8.30532 3.94682 7.42528 4.22935 6.5997C4.52355 5.74002 5.06969 4.99164 5.79832 4.44973C5.99271 4.30517 6.1982 4.17813 6.42553 4.06197C6.62998 3.95751 6.8079 3.88167 7.01973 3.8087C7.07255 3.7905 7.12792 3.77003 7.14277 3.7632C7.17817 3.74692 7.22707 3.74683 7.26281 3.76298ZM9.95472 3.80101C10.3741 3.95068 10.7345 4.13478 11.0757 4.37375C11.302 4.53222 11.4714 4.67516 11.6807 4.88424C11.9207 5.12398 12.0924 5.33359 12.2657 5.5986C12.8926 6.55705 13.1391 7.72419 12.9496 8.83673C12.754 9.98569 12.1299 11.0061 11.2001 11.6977C11.0058 11.8422 10.8003 11.9693 10.5729 12.0854C10.3685 12.1899 10.1906 12.2657 9.97872 12.3387C9.92591 12.3569 9.87054 12.3774 9.85568 12.3842C9.78088 12.4186 9.69118 12.3816 9.6466 12.2979L9.63061 12.2679V12.0159V11.7639L9.64923 11.7246C9.68643 11.6461 9.71752 11.6232 9.86905 11.563C10.5137 11.3068 11.0678 10.8864 11.4767 10.3436C11.732 10.0045 11.9147 9.64809 12.0572 9.21075C12.1928 8.79486 12.255 8.33555 12.2331 7.9117C12.206 7.38535 12.0846 6.91177 11.8575 6.44683C11.6621 6.04653 11.4313 5.72595 11.1153 5.41543C10.9526 5.2556 10.8008 5.12988 10.6179 5.00348C10.4019 4.85416 10.1193 4.70496 9.87369 4.61054C9.83573 4.59594 9.79521 4.57993 9.78366 4.57495C9.74088 4.55653 9.67718 4.48467 9.64857 4.42255L9.63061 4.38355L9.62885 4.149L9.62709 3.91446L9.65377 3.86099C9.68349 3.80143 9.69628 3.78701 9.73564 3.7687C9.78107 3.74757 9.82181 3.75358 9.95472 3.80101ZM8.70009 5.05577C8.76968 5.07389 8.82639 5.11502 8.8546 5.16783C8.86833 5.19355 8.86836 5.19396 8.87135 5.52059L8.87435 5.84761L8.94638 5.85826C9.42131 5.92849 9.80572 6.25127 9.95476 6.70496C9.99244 6.81966 10.0035 6.881 9.99517 6.92951C9.98325 6.99907 9.93754 7.04824 9.86831 7.06597C9.83771 7.07381 9.79543 7.07503 9.60815 7.0735C9.36475 7.0715 9.36814 7.07194 9.31448 7.0349C9.28373 7.01367 9.26524 6.9846 9.23796 6.91464C9.18848 6.7877 9.13644 6.70266 9.0639 6.63018C8.98766 6.55401 8.88963 6.49773 8.77832 6.46623C8.56893 6.40696 8.26113 6.40948 8.06944 6.47204C7.76739 6.57061 7.63449 6.79885 7.68363 7.13466C7.70148 7.25665 7.75956 7.35454 7.85816 7.42881C7.99666 7.53314 8.24978 7.60909 8.60726 7.65358C9.45866 7.75952 9.88835 7.98572 10.0599 8.41825C10.1062 8.53521 10.132 8.65805 10.1443 8.82073C10.1741 9.21366 10.0534 9.56004 9.79324 9.82779C9.57666 10.0507 9.29242 10.1963 8.93587 10.2668L8.90136 10.2736V10.5689C8.90136 10.838 8.90038 10.8676 8.89023 10.9042C8.86936 10.9795 8.82828 11.0316 8.76843 11.0587C8.74398 11.0698 8.72841 11.0706 8.52497 11.0707C8.31693 11.0708 8.30613 11.0703 8.27288 11.0579C8.21103 11.0349 8.16841 11.0007 8.14308 10.9538C8.1303 10.9302 8.13008 10.925 8.12841 10.6021L8.12671 10.2744L8.05339 10.2608C7.68543 10.1928 7.40668 10.0637 7.19281 9.8624C7.08783 9.76358 7.00501 9.64948 6.93539 9.50776C6.88469 9.40454 6.85668 9.32702 6.82699 9.20775C6.78725 9.04807 6.79275 8.98376 6.8511 8.92566C6.90259 8.87438 6.90571 8.87393 7.19732 8.87598L7.44588 8.87774L7.47889 8.89633C7.49808 8.90714 7.52135 8.92724 7.53447 8.94433C7.55769 8.97458 7.55959 8.97976 7.59583 9.11133C7.68358 9.42996 7.89603 9.60171 8.27233 9.65827C8.37037 9.673 8.58915 9.67621 8.67509 9.66418C9.01094 9.61717 9.2544 9.43228 9.32707 9.16905C9.35674 9.06157 9.35679 8.91533 9.32719 8.8089C9.28219 8.64709 9.15949 8.53363 8.94141 8.4522C8.78722 8.39462 8.53384 8.33661 8.31017 8.30769C7.9477 8.26083 7.60935 8.16263 7.40117 8.04388C7.30184 7.98721 7.24262 7.94246 7.1667 7.86669C6.96993 7.67032 6.87816 7.41785 6.87663 7.06866C6.87606 6.93959 6.88307 6.87451 6.90897 6.76865C7.01174 6.34844 7.34849 6.02196 7.82171 5.88375C7.89373 5.86272 8.01038 5.83681 8.06558 5.8296L8.09709 5.82548V5.54229C8.09709 5.31063 8.09872 5.25285 8.10605 5.22474C8.13113 5.12849 8.19065 5.06614 8.27031 5.05269C8.28562 5.0501 8.38065 5.04767 8.48146 5.04728C8.62853 5.04671 8.67174 5.04839 8.70009 5.05577Z"
          stroke="#1E1E1E" stroke-width="4" mask="url(#path-1-outside-1_2286_73772)"/>
    <path fill-rule="evenodd" clip-rule="evenodd"
          d="M7.85381 4.08238C7.50135 4.66925 6.84039 5.76823 6.38502 6.52455C5.42357 8.12136 5.44576 8.08428 5.44576 8.09464C5.44576 8.09903 5.49618 8.13232 5.55778 8.16864C5.6194 8.20496 6.05993 8.46553 6.53674 8.74767C7.01356 9.02983 7.59655 9.37476 7.83228 9.51416C8.06801 9.65359 8.31265 9.79867 8.37592 9.83655C8.4392 9.87444 8.501 9.90544 8.51325 9.90544C8.52551 9.90544 8.68415 9.81728 8.86577 9.70949C9.0474 9.60172 9.7264 9.20011 10.3747 8.81703C11.0229 8.43395 11.5595 8.11467 11.567 8.10751C11.5841 8.0914 11.6076 8.1316 10.605 6.46603C10.1497 5.70972 9.60548 4.80565 9.39564 4.457C9.1858 4.10834 8.906 3.64377 8.77386 3.42459C8.64173 3.20543 8.52486 3.02368 8.51415 3.02074C8.50343 3.01777 8.20628 3.49551 7.85381 4.08238ZM5.48985 8.81153C5.5374 8.87859 5.7939 9.24064 6.05985 9.61612C6.32579 9.99159 6.70528 10.527 6.90316 10.8059C7.10103 11.0849 7.52461 11.6827 7.84444 12.1345C8.16425 12.5864 8.43758 12.9657 8.45184 12.9776C8.47232 12.9946 8.53889 12.9125 8.76987 12.5852C9.03887 12.2041 9.82755 11.0922 11.0417 9.38241C11.3082 9.00713 11.5181 8.69739 11.5083 8.69411C11.4931 8.68904 10.7438 9.12572 9.45902 9.88849C8.61452 10.3898 8.48607 10.4646 8.46924 10.4646C8.45921 10.4646 8.35562 10.4089 8.23906 10.3408C7.77696 10.0708 5.53105 8.74116 5.49499 8.71621C5.4082 8.65615 5.40617 8.69358 5.48985 8.81153Z"
          fill="#EBEBEB"/>
</svg>
