<svg width="8" height="8" viewBox="0 0 8 8" fill="none" xmlns="http://www.w3.org/2000/svg">
    <path d="M6.33957 6.63922C6.14119 6.63922 5.97078 6.56901 5.8328 6.43002C5.52887 6.12309 5.50852 5.58957 5.50789 5.56713V3.18696C5.50789 2.79677 5.41378 2.66141 5.37563 2.62232H5.19314C5.10539 2.62232 5.03418 2.54124 5.03418 2.44134C5.03418 2.34144 5.10539 2.26037 5.19314 2.26037H5.4195C5.43603 2.26037 5.4532 2.26326 5.4691 2.26905C5.50534 2.28281 5.82581 2.42324 5.82581 3.18623V5.55989C5.82581 5.55989 5.84361 5.95804 6.04454 6.16C6.13546 6.25121 6.25119 6.28886 6.3987 6.27438C6.53986 6.26063 6.64986 6.19113 6.73634 6.06083C6.95507 5.72928 6.94235 5.13062 6.91946 4.9996C6.91374 4.96847 6.89975 4.89897 6.86414 4.74406C6.69819 4.02523 6.61426 3.28468 6.61426 2.54341V1.40906C6.61426 1.30916 6.68547 1.22809 6.77322 1.22809C6.86096 1.22809 6.93218 1.30916 6.93218 1.40906V2.54341C6.93218 3.25355 7.01293 3.96297 7.17189 4.65212C7.20241 4.78532 7.22213 4.87581 7.23166 4.92865C7.26791 5.13641 7.27872 5.84221 6.99131 6.278C6.85206 6.48938 6.65622 6.61244 6.42668 6.63488C6.39743 6.63778 6.36882 6.63922 6.34084 6.63922H6.33957Z"
          fill="#1E1E1E"/>
    <path d="M6.93041 1.95174L6.54636 1.98431C6.4796 1.9901 6.41538 1.95101 6.38231 1.88442L5.64346 0.388119C5.61485 0.330207 5.61358 0.260713 5.64028 0.202077C5.69624 0.0782903 5.84375 0.0572973 5.9245 0.162263L7.04741 1.62526C7.14088 1.7476 7.07221 1.93871 6.93041 1.95101V1.95174Z"
          fill="#1E1E1E"/>
    <path d="M5.30212 7.28764V5.18544L4.78199 4.59329L5.30212 3.92513V0.753739C5.30212 0.552495 5.11581 0.389618 4.88564 0.389618H1.25687C1.02669 0.389618 0.840387 0.552495 0.840387 0.753739V4.0634L1.26068 4.59184L0.840387 5.07034V7.28692H0.434082V7.90513H5.70906V7.28692H5.30212V7.28764ZM4.33309 1.33865V2.72274H1.80942V1.33865H4.33309Z"
          fill="#1E1E1E"/>
</svg>
