<svg width="9" height="12" viewBox="0 0 9 12" fill="none" xmlns="http://www.w3.org/2000/svg">
    <path d="M1.73901 8.38287C1.86089 7.74064 2.21425 7.20216 2.83563 6.7908C3.01625 6.67129 3.2081 6.56321 3.39181 6.44677C3.49032 6.38442 3.59038 6.32154 3.67584 6.24797C3.84316 6.10412 3.84058 5.89706 3.67559 5.75077C3.61749 5.69933 3.55126 5.65296 3.48322 5.6103C3.34314 5.52255 3.19945 5.4385 3.05679 5.3535C2.55741 5.05594 2.16235 4.68968 1.93435 4.21248C1.75709 3.84146 1.68479 3.45445 1.67511 3.05855C1.668 2.76703 1.93383 2.54812 2.2899 2.54801C3.76377 2.5478 5.2375 2.5478 6.71136 2.54801C7.06692 2.54812 7.33571 2.76766 7.32293 3.05972C7.31467 3.24782 7.29543 3.43688 7.25993 3.62276C7.14231 4.23715 6.81348 4.76092 6.22838 5.16486C6.02969 5.30205 5.81356 5.42241 5.60867 5.55367C5.50565 5.61972 5.40043 5.68609 5.31238 5.76464C5.16236 5.89855 5.16352 6.09607 5.30863 6.23337C5.37009 6.29148 5.4429 6.34293 5.51766 6.38993C5.67452 6.4888 5.83642 6.58205 5.99534 6.67881C6.48259 6.97552 6.8597 7.34294 7.07763 7.81273C7.24392 8.17158 7.31299 8.54483 7.32435 8.92633C7.33352 9.23627 7.07311 9.45264 6.69664 9.45275C5.96513 9.45275 5.23362 9.45275 4.50212 9.45275C3.76635 9.45275 3.03045 9.45296 2.29468 9.45275C1.93073 9.45264 1.66336 9.23416 1.67691 8.93543C1.6853 8.75082 1.70441 8.56526 1.73901 8.38287ZM2.5618 8.83106C2.59704 8.84133 2.63784 8.84175 2.67606 8.84175C2.98036 8.84207 3.28466 8.84217 3.58896 8.84217C3.89326 8.84217 4.19756 8.84217 4.50186 8.84217C5.104 8.84217 5.70615 8.84217 6.30829 8.84217C6.32985 8.84217 6.35129 8.8426 6.37285 8.84164C6.45819 8.83783 6.51861 8.80237 6.54494 8.74129C6.57064 8.68159 6.54985 8.62083 6.48362 8.57563C6.28531 8.44035 6.08598 8.30591 5.88703 8.17126C5.51727 7.92102 5.14738 7.67078 4.77763 7.42054C4.76769 7.41376 4.75774 7.40709 4.74767 7.40042C4.56925 7.28324 4.43137 7.28165 4.25475 7.39936C4.0345 7.54619 3.81657 7.69512 3.59761 7.84332C3.23947 8.08573 2.88107 8.32793 2.52358 8.57097C2.40442 8.65195 2.42443 8.79083 2.5618 8.83106Z"
          fill="#EBEBEB"/>
    <path d="M1.73901 8.38287C1.86089 7.74064 2.21425 7.20216 2.83563 6.7908C3.01625 6.67129 3.2081 6.56321 3.39181 6.44677C3.49032 6.38442 3.59038 6.32154 3.67584 6.24797C3.84316 6.10412 3.84058 5.89706 3.67559 5.75077C3.61749 5.69933 3.55126 5.65296 3.48322 5.6103C3.34314 5.52255 3.19945 5.4385 3.05679 5.3535C2.55741 5.05594 2.16235 4.68968 1.93435 4.21248C1.75709 3.84146 1.68479 3.45445 1.67511 3.05855C1.668 2.76703 1.93383 2.54812 2.2899 2.54801C3.76377 2.5478 5.2375 2.5478 6.71136 2.54801C7.06692 2.54812 7.33571 2.76766 7.32293 3.05972C7.31467 3.24782 7.29543 3.43688 7.25993 3.62276C7.14231 4.23715 6.81348 4.76092 6.22838 5.16486C6.02969 5.30205 5.81356 5.42241 5.60867 5.55367C5.50565 5.61972 5.40043 5.68609 5.31238 5.76464C5.16236 5.89855 5.16352 6.09607 5.30863 6.23337C5.37009 6.29148 5.4429 6.34293 5.51766 6.38993C5.67452 6.4888 5.83642 6.58205 5.99534 6.67881C6.48259 6.97552 6.8597 7.34294 7.07763 7.81273C7.24392 8.17158 7.31299 8.54483 7.32435 8.92633C7.33352 9.23627 7.07311 9.45264 6.69664 9.45275C5.96513 9.45275 5.23362 9.45275 4.50212 9.45275C3.76635 9.45275 3.03045 9.45296 2.29468 9.45275C1.93073 9.45264 1.66336 9.23416 1.67691 8.93543C1.6853 8.75082 1.70441 8.56526 1.73901 8.38287ZM2.5618 8.83106C2.59704 8.84133 2.63784 8.84175 2.67606 8.84175C2.98036 8.84207 3.28466 8.84217 3.58896 8.84217C3.89326 8.84217 4.19756 8.84217 4.50186 8.84217C5.104 8.84217 5.70615 8.84217 6.30829 8.84217C6.32985 8.84217 6.35129 8.8426 6.37285 8.84164C6.45819 8.83783 6.51861 8.80237 6.54494 8.74129C6.57064 8.68159 6.54985 8.62083 6.48362 8.57563C6.28531 8.44035 6.08598 8.30591 5.88703 8.17126C5.51727 7.92102 5.14738 7.67078 4.77763 7.42054C4.76769 7.41376 4.75774 7.40709 4.74767 7.40042C4.56925 7.28324 4.43137 7.28165 4.25475 7.39936C4.0345 7.54619 3.81657 7.69512 3.59761 7.84332C3.23947 8.08573 2.88107 8.32793 2.52358 8.57097C2.40442 8.65195 2.42443 8.79083 2.5618 8.83106Z"
          fill="#EBEBEB"/>
</svg>
