<svg width="14" height="14" viewBox="0 0 14 14" fill="none" xmlns="http://www.w3.org/2000/svg">
    <circle cx="7" cy="7" r="5.9" fill="#EBEBEB"/>
    <circle cx="7" cy="7" r="5.9" fill="url(#paint0_linear_3420_8355)" fill-opacity="0.4"/>
    <circle cx="7" cy="7" r="5.9" stroke="#1E1E1E" stroke-width="0.8"/>
    <path fill-rule="evenodd" clip-rule="evenodd"
          d="M7.61625 5.59018C7.02828 5.091 6.39366 4.65164 5.71507 4.27374C5.51511 4.16231 5.63101 3.86698 5.85745 3.91061C6.73381 4.07904 7.54214 4.437 8.28512 4.98404L8.31073 4.96049L8.31079 4.96043C8.33091 4.9419 8.35126 4.92315 8.37186 4.90475C8.44548 4.8393 8.5361 4.85971 8.59563 4.97043C8.76157 5.27937 9.0349 5.51676 9.34735 5.69035C9.44988 5.74735 9.4698 5.83203 9.40299 5.89935C9.38452 5.91799 9.36321 5.93398 9.3417 5.95012L9.34169 5.95012C9.33179 5.95755 9.32184 5.96501 9.31212 5.97278C9.88478 6.69691 10.258 7.4804 10.4329 8.32863C10.4781 8.54725 10.1722 8.65915 10.0568 8.46609C9.66514 7.81068 9.21056 7.19773 8.69451 6.63123C8.66934 6.6537 8.64424 6.6759 8.61927 6.69799L8.61925 6.69801C8.5608 6.7497 8.50303 6.80079 8.44669 6.85338C8.35728 6.93665 8.28561 6.92 8.19085 6.79379C7.97875 6.5116 7.72121 6.26576 7.42917 6.06098C7.31595 5.98169 7.30331 5.91061 7.38228 5.83156C7.44053 5.77341 7.49745 5.7141 7.55521 5.65392L7.55523 5.6539L7.61649 5.59018H7.61625ZM7.40422 6.13891L7.41417 6.1485C7.65243 6.3783 7.88748 6.60501 8.12606 6.83536L8.09396 6.86759C8.0545 6.9072 8.01451 6.94736 7.97421 6.98737L5.85462 9.09692C5.52019 9.42978 5.54632 9.41452 5.57229 9.39936C5.59825 9.3842 5.62405 9.36914 5.28973 9.70165C5.0526 9.9374 4.6641 9.94069 4.42649 9.7101C4.18766 9.47834 4.19154 9.1063 4.43621 8.87688C4.97375 8.37305 5.14968 8.21846 5.3263 8.06327C5.50228 7.90864 5.67894 7.75342 6.21468 7.2515L6.98388 6.53121L7.3741 6.16588C7.38034 6.16001 7.38668 6.15442 7.39319 6.14869L7.39319 6.14869L7.40422 6.13891ZM8.6856 4.94438C8.91221 5.1634 9.13833 5.38195 9.36809 5.60378V5.60402C9.37055 5.60125 9.37309 5.59822 9.37573 5.59506C9.38248 5.587 9.38991 5.57813 9.39847 5.57071C9.47524 5.50409 9.48739 5.39243 9.4388 5.30446C9.33141 5.11023 9.17591 4.9587 8.96915 4.86393C8.82289 4.79684 8.77794 4.8325 8.68537 4.94415L8.6856 4.94438Z"
          fill="#1E1E1E"/>
    <defs>
        <linearGradient id="paint0_linear_3420_8355" x1="17.2196" y1="11.8714" x2="-3.44303" y2="11.8871"
                        gradientUnits="userSpaceOnUse">
            <stop stop-color="#F3B8D8"/>
            <stop offset="0.1" stop-color="#B793E9"/>
            <stop offset="0.2" stop-color="#9FD4F3"/>
            <stop offset="0.3" stop-color="#FFD2C4"/>
            <stop offset="0.4" stop-color="#FBF3F3"/>
            <stop offset="0.5" stop-color="#D9ABDF"/>
            <stop offset="0.6" stop-color="#AF9CE3"/>
            <stop offset="0.7" stop-color="#AAE4E1"/>
            <stop offset="0.8" stop-color="#C6EAD0"/>
            <stop offset="0.9" stop-color="white"/>
            <stop offset="1" stop-color="#FDB5E4"/>
        </linearGradient>
    </defs>
</svg>
