<svg width="15" height="14" viewBox="0 0 15 14" fill="none" xmlns="http://www.w3.org/2000/svg">
    <circle cx="7.229" cy="7" r="6.07143" fill="#EBEBEB"/>
    <circle cx="7.229" cy="7" r="6.07143" fill="url(#paint0_linear_2119_27496)" fill-opacity="0.7"/>
    <circle cx="7.229" cy="7" r="6.07143" stroke="#1E1E1E" stroke-width="1.48465"/>
    <path fill-rule="evenodd" clip-rule="evenodd"
          d="M7.0537 3.07603C7.0429 3.0768 7.00315 3.07935 6.96535 3.08169C6.6372 3.10201 6.29566 3.16867 5.97979 3.27406C5.60223 3.40003 5.23477 3.58912 4.91503 3.82196C4.74679 3.94447 4.60787 4.06392 4.45022 4.22162C4.30269 4.36917 4.2035 4.48246 4.08998 4.63303C3.80443 5.01178 3.58723 5.44512 3.45705 5.89584C3.37959 6.16403 3.33517 6.41129 3.31104 6.7086C3.30239 6.81515 3.30105 7.16111 3.30889 7.26208C3.3518 7.81434 3.4771 8.27943 3.70864 8.74588C3.86449 9.05984 4.04387 9.3277 4.27776 9.59573C4.39037 9.72477 4.59374 9.92127 4.73115 10.0338C5.22747 10.4403 5.8041 10.7157 6.42742 10.8439C6.79085 10.9186 7.18107 10.9426 7.54845 10.9126C8.34755 10.8475 9.10422 10.5436 9.71524 10.0424C9.90622 9.88578 10.1139 9.67885 10.2641 9.49563C10.5325 9.16803 10.7388 8.81465 10.892 8.42013C11.0336 8.05547 11.1135 7.69553 11.1472 7.26993C11.1541 7.18276 11.1566 6.91359 11.1514 6.81066C11.127 6.32809 11.0244 5.88047 10.8386 5.44554C10.7988 5.35259 10.7094 5.17101 10.6598 5.08249C10.5185 4.83038 10.3598 4.60706 10.1662 4.38757C10.1041 4.31714 9.91721 4.12998 9.84743 4.06831C9.57431 3.82686 9.30138 3.64216 8.9836 3.48372C8.526 3.25557 8.05378 3.12607 7.52292 3.08315C7.45184 3.07741 7.10748 3.07218 7.0537 3.07603ZM6.41956 4.22806C6.44242 4.23838 6.46468 4.26001 6.47782 4.28467L6.48828 4.3043V4.46917V4.63403L6.4761 4.65973C6.45302 4.70842 6.42873 4.72757 6.35187 4.75769C5.955 4.91323 5.61859 5.15344 5.35408 5.47014C5.15194 5.71217 5.00654 5.97971 4.90077 6.30429C4.74591 6.77946 4.74412 7.2918 4.89564 7.77472C4.93317 7.89433 4.97828 8.0058 5.03767 8.12567C5.12793 8.30784 5.2264 8.45892 5.35771 8.61672C5.41915 8.69055 5.57854 8.85076 5.648 8.9085C5.79962 9.03453 5.95777 9.13899 6.12012 9.22034C6.18683 9.25377 6.27914 9.29482 6.33724 9.3169C6.36417 9.32713 6.38972 9.33734 6.39404 9.3396C6.42023 9.35325 6.45861 9.39731 6.47687 9.43468L6.49024 9.46205V9.60837V9.7547L6.47205 9.79023C6.45291 9.82761 6.43916 9.84173 6.4127 9.85117C6.384 9.8614 6.3671 9.85833 6.27428 9.82596C5.90266 9.69636 5.59465 9.52087 5.30189 9.27195C5.23189 9.21243 5.07096 9.05379 5.01112 8.98533C4.69979 8.6291 4.47991 8.21013 4.36606 7.75623C4.22647 7.19968 4.25023 6.62395 4.43506 6.08385C4.62752 5.52144 4.98482 5.03185 5.46149 4.67733C5.58865 4.58276 5.72309 4.49965 5.87181 4.42366C6.00556 4.35532 6.12196 4.30571 6.26054 4.25797C6.29509 4.24606 6.33132 4.23267 6.34103 4.2282C6.36419 4.21755 6.39618 4.21749 6.41956 4.22806ZM8.18062 4.25294C8.45501 4.35085 8.69073 4.47129 8.91398 4.62763C9.06202 4.7313 9.17286 4.82481 9.30979 4.96159C9.4668 5.11843 9.57909 5.25556 9.69248 5.42892C10.1026 6.05595 10.2638 6.81949 10.1399 7.54733C10.0119 8.29898 9.60366 8.96657 8.99538 9.41896C8.86821 9.51354 8.73378 9.59665 8.58505 9.67264C8.4513 9.74098 8.3349 9.79059 8.19632 9.83833C8.16177 9.85023 8.12555 9.86363 8.11583 9.8681C8.06689 9.8906 8.00822 9.86637 7.97904 9.81163L7.96859 9.792V9.62713V9.46227L7.98077 9.43657C8.00511 9.38522 8.02545 9.37027 8.12457 9.33086C8.54629 9.16322 8.90881 8.88824 9.17627 8.53313C9.34335 8.31132 9.46286 8.07812 9.5561 7.79201C9.64477 7.51993 9.68545 7.21945 9.67116 6.94216C9.65341 6.59782 9.57398 6.28801 9.42545 5.98384C9.29757 5.72197 9.14663 5.51224 8.93986 5.30909C8.83343 5.20454 8.73413 5.12229 8.6145 5.0396C8.47317 4.94191 8.2883 4.8443 8.12761 4.78253C8.10277 4.77298 8.07627 4.76251 8.06871 4.75925C8.04072 4.7472 7.99905 4.70019 7.98034 4.65955L7.96859 4.63403L7.96743 4.48059L7.96628 4.32715L7.98374 4.29217C8.00318 4.25321 8.01155 4.24378 8.0373 4.2318C8.06702 4.21798 8.09367 4.22191 8.18062 4.25294ZM7.35983 5.07381C7.40536 5.08566 7.44246 5.11257 7.46092 5.14712C7.4699 5.16394 7.46992 5.16421 7.47188 5.37789L7.47384 5.59183L7.52096 5.5988C7.83166 5.64474 8.08315 5.85591 8.18065 6.15271C8.2053 6.22775 8.21252 6.26788 8.20708 6.29962C8.19929 6.34512 8.16938 6.37729 8.12409 6.38889C8.10407 6.39401 8.07642 6.39481 7.95389 6.39381C7.79466 6.3925 7.79688 6.39279 7.76177 6.36856C7.74165 6.35467 7.72956 6.33565 7.71171 6.28988C7.67934 6.20684 7.6453 6.15121 7.59784 6.10379C7.54797 6.05396 7.48383 6.01714 7.41102 5.99653C7.27403 5.95776 7.07267 5.95941 6.94726 6.00033C6.74966 6.06482 6.66272 6.21414 6.69486 6.43383C6.70654 6.51363 6.74454 6.57767 6.80904 6.62626C6.89965 6.69451 7.06524 6.7442 7.29911 6.7733C7.85609 6.84261 8.1372 6.99059 8.2494 7.27356C8.27974 7.35007 8.29661 7.43044 8.30468 7.53686C8.32416 7.79391 8.24515 8.02052 8.07498 8.19568C7.93329 8.34153 7.74734 8.43674 7.51409 8.4829L7.49151 8.48736V8.6805C7.49151 8.85655 7.49087 8.87595 7.48423 8.89989C7.47057 8.94911 7.4437 8.9832 7.40455 9.00096C7.38855 9.00821 7.37836 9.00871 7.24527 9.0088C7.10917 9.00888 7.1021 9.00852 7.08035 9.00042C7.03989 8.98535 7.01201 8.96299 6.99544 8.93234C6.98708 8.91687 6.98693 8.91347 6.98584 8.70224L6.98473 8.48785L6.93676 8.47897C6.69604 8.43446 6.51368 8.35003 6.37377 8.21832C6.30509 8.15367 6.25091 8.07903 6.20536 7.98632C6.17219 7.91879 6.15387 7.86808 6.13445 7.79005C6.10845 7.68559 6.11205 7.64351 6.15022 7.6055C6.18391 7.57195 6.18595 7.57166 6.37672 7.57301L6.53932 7.57415L6.56092 7.58632C6.57347 7.59339 6.5887 7.60654 6.59728 7.61772C6.61247 7.63751 6.61372 7.6409 6.63743 7.72697C6.69483 7.93542 6.83381 8.04778 7.07999 8.08478C7.14413 8.09442 7.28726 8.09652 7.34348 8.08865C7.5632 8.05789 7.72247 7.93694 7.77001 7.76473C7.78942 7.69442 7.78945 7.59875 7.77009 7.52912C7.74065 7.42326 7.66038 7.34904 7.51771 7.29576C7.41684 7.25809 7.25107 7.22015 7.10475 7.20123C6.86762 7.17057 6.64627 7.10633 6.51008 7.02864C6.4451 6.99157 6.40635 6.96229 6.35669 6.91272C6.22796 6.78426 6.16792 6.61909 6.16692 6.39065C6.16655 6.30621 6.17114 6.26363 6.18808 6.19438C6.25531 5.91947 6.47561 5.70589 6.7852 5.61547C6.83231 5.60171 6.90863 5.58477 6.94474 5.58005L6.96535 5.57735V5.39209C6.96535 5.24054 6.96642 5.20274 6.97121 5.18435C6.98762 5.12138 7.02656 5.08059 7.07867 5.07179C7.08869 5.0701 7.15086 5.0685 7.21681 5.06825C7.31302 5.06788 7.34129 5.06898 7.35983 5.07381Z"
          fill="#1E1E1E"/>
    <defs>
        <linearGradient id="paint0_linear_2119_27496" x1="17.1311" y1="11.7201" x2="-2.88954" y2="11.7352"
                        gradientUnits="userSpaceOnUse">
            <stop stop-color="#F3B8D8"/>
            <stop offset="0.1" stop-color="#B793E9"/>
            <stop offset="0.2" stop-color="#9FD4F3"/>
            <stop offset="0.3" stop-color="#FFD2C4"/>
            <stop offset="0.4" stop-color="#FBF3F3"/>
            <stop offset="0.5" stop-color="#D9ABDF"/>
            <stop offset="0.6" stop-color="#AF9CE3"/>
            <stop offset="0.7" stop-color="#AAE4E1"/>
            <stop offset="0.8" stop-color="#C6EAD0"/>
            <stop offset="0.9" stop-color="white"/>
            <stop offset="1" stop-color="#FDB5E4"/>
        </linearGradient>
    </defs>
</svg>
