<svg width="8" height="9" viewBox="0 0 8 9" fill="none" xmlns="http://www.w3.org/2000/svg">
    <circle cx="4" cy="4.5" r="4" fill="#1E1E1E"/>
    <path fill-rule="evenodd" clip-rule="evenodd"
          d="M4.21235 3.45315C3.75621 3.05206 3.26389 2.69902 2.73746 2.39538C2.58234 2.30585 2.67224 2.06855 2.84791 2.1036C3.52777 2.23894 4.15486 2.52656 4.73124 2.96611L4.75111 2.94719L4.75113 2.94717C4.76674 2.93227 4.78255 2.9172 4.79853 2.9024C4.85564 2.84981 4.92595 2.86621 4.97213 2.95517C5.10086 3.20341 5.31291 3.39415 5.5553 3.53363C5.63484 3.57943 5.65029 3.64748 5.59846 3.70157C5.58413 3.71654 5.5676 3.72939 5.55091 3.74236L5.5509 3.74237C5.54322 3.74834 5.53551 3.75433 5.52797 3.76057C5.97222 4.34242 6.26173 4.97196 6.39744 5.65351C6.4325 5.82918 6.1952 5.91909 6.10567 5.76397C5.80183 5.23734 5.44918 4.74483 5.04884 4.28964L4.99047 4.34328L4.99046 4.34329C4.94511 4.38483 4.90029 4.42588 4.85658 4.46814C4.78722 4.53505 4.73162 4.52167 4.65811 4.42026C4.49356 4.19352 4.29377 3.99598 4.06721 3.83144C3.97938 3.76773 3.96958 3.71062 4.03084 3.6471C4.07603 3.60038 4.12018 3.55272 4.16499 3.50437L4.16501 3.50435L4.21253 3.45315H4.21235ZM4.04707 3.8936L4.60706 4.45321L4.58214 4.47912C4.55154 4.51094 4.52051 4.5432 4.48926 4.57535L2.84492 6.27039C2.58548 6.53784 2.60575 6.52559 2.6259 6.5134C2.64604 6.50122 2.66606 6.48912 2.4067 6.7563C2.22274 6.94573 1.92135 6.94836 1.73701 6.76308C1.55173 6.57686 1.55475 6.27793 1.74455 6.09359C2.16156 5.68876 2.29805 5.56454 2.43507 5.43985C2.57159 5.3156 2.70864 5.19088 3.12426 4.78758L3.7212 4.20861L4.0237 3.91528C4.02855 3.91055 4.03347 3.90606 4.03852 3.90145L4.04707 3.8936ZM5.04026 2.93385L5.5699 3.46387V3.46406C5.57181 3.46183 5.57378 3.4594 5.57583 3.45686C5.58106 3.45038 5.58682 3.44325 5.59346 3.43729C5.65302 3.38376 5.66245 3.29405 5.62475 3.22336C5.54144 3.0673 5.42081 2.94554 5.26041 2.86939C5.14694 2.81548 5.11207 2.84413 5.04026 2.93385Z"
          fill="#EBEBEB"/>
    <path fill-rule="evenodd" clip-rule="evenodd"
          d="M4.21235 3.45315C3.75621 3.05206 3.26389 2.69902 2.73746 2.39538C2.58234 2.30585 2.67224 2.06855 2.84791 2.1036C3.52777 2.23894 4.15486 2.52656 4.73124 2.96611L4.75111 2.94719L4.75113 2.94717C4.76674 2.93227 4.78255 2.9172 4.79853 2.9024C4.85564 2.84981 4.92595 2.86621 4.97213 2.95517C5.10086 3.20341 5.31291 3.39415 5.5553 3.53363C5.63484 3.57943 5.65029 3.64748 5.59846 3.70157C5.58413 3.71654 5.5676 3.72939 5.55091 3.74236L5.5509 3.74237C5.54322 3.74834 5.53551 3.75433 5.52797 3.76057C5.97222 4.34242 6.26173 4.97196 6.39744 5.65351C6.4325 5.82918 6.1952 5.91909 6.10567 5.76397C5.80183 5.23734 5.44918 4.74483 5.04884 4.28964L4.99047 4.34328L4.99046 4.34329C4.94511 4.38483 4.90029 4.42588 4.85658 4.46814C4.78722 4.53505 4.73162 4.52167 4.65811 4.42026C4.49356 4.19352 4.29377 3.99598 4.06721 3.83144C3.97938 3.76773 3.96958 3.71062 4.03084 3.6471C4.07603 3.60038 4.12018 3.55272 4.16499 3.50437L4.16501 3.50435L4.21253 3.45315H4.21235ZM4.04707 3.8936L4.60706 4.45321L4.58214 4.47912C4.55154 4.51094 4.52051 4.5432 4.48926 4.57535L2.84492 6.27039C2.58548 6.53784 2.60575 6.52559 2.6259 6.5134C2.64604 6.50122 2.66606 6.48912 2.4067 6.7563C2.22274 6.94573 1.92135 6.94836 1.73701 6.76308C1.55173 6.57686 1.55475 6.27793 1.74455 6.09359C2.16156 5.68876 2.29805 5.56454 2.43507 5.43985C2.57159 5.3156 2.70864 5.19088 3.12426 4.78758L3.7212 4.20861L4.0237 3.91528C4.02855 3.91055 4.03347 3.90606 4.03852 3.90145L4.04707 3.8936ZM5.04026 2.93385L5.5699 3.46387V3.46406C5.57181 3.46183 5.57378 3.4594 5.57583 3.45686C5.58106 3.45038 5.58682 3.44325 5.59346 3.43729C5.65302 3.38376 5.66245 3.29405 5.62475 3.22336C5.54144 3.0673 5.42081 2.94554 5.26041 2.86939C5.14694 2.81548 5.11207 2.84413 5.04026 2.93385Z"
          fill="url(#paint0_linear_3440_4000)" fill-opacity="0.7"/>
    <defs>
        <linearGradient id="paint0_linear_3440_4000" x1="8.46077" y1="6.62594" x2="-0.557243" y2="6.63276"
                        gradientUnits="userSpaceOnUse">
            <stop stop-color="#F3B8D8"/>
            <stop offset="0.1" stop-color="#B793E9"/>
            <stop offset="0.2" stop-color="#9FD4F3"/>
            <stop offset="0.3" stop-color="#FFD2C4"/>
            <stop offset="0.4" stop-color="#FBF3F3"/>
            <stop offset="0.5" stop-color="#D9ABDF"/>
            <stop offset="0.6" stop-color="#AF9CE3"/>
            <stop offset="0.7" stop-color="#AAE4E1"/>
            <stop offset="0.8" stop-color="#C6EAD0"/>
            <stop offset="0.9" stop-color="white"/>
            <stop offset="1" stop-color="#FDB5E4"/>
        </linearGradient>
    </defs>
</svg>
