<svg width="8" height="8" viewBox="0 0 8 8" fill="none" xmlns="http://www.w3.org/2000/svg">
    <path fill-rule="evenodd" clip-rule="evenodd"
          d="M6.21803 2.89251V2.48113C6.21803 1.25565 5.22459 0.262207 3.99911 0.262207C2.77364 0.262207 1.78019 1.25565 1.78019 2.48113V2.89256C1.20714 3.00721 0.775391 3.51316 0.775391 4.11994V6.53777C0.775391 7.22908 1.33581 7.78951 2.02713 7.78951H5.97135C6.66267 7.78951 7.22309 7.22908 7.22309 6.53777V4.11994C7.22309 3.51307 6.79121 3.00706 6.21803 2.89251ZM4.96629 2.86821V2.48113C4.96629 1.94697 4.53327 1.51394 3.99911 1.51394C3.46495 1.51394 3.03193 1.94697 3.03193 2.48113V2.86821H4.96629Z"
          fill="#EBEBEB"/>
    <path fill-rule="evenodd" clip-rule="evenodd"
          d="M6.21803 2.89251V2.48113C6.21803 1.25565 5.22459 0.262207 3.99911 0.262207C2.77364 0.262207 1.78019 1.25565 1.78019 2.48113V2.89256C1.20714 3.00721 0.775391 3.51316 0.775391 4.11994V6.53777C0.775391 7.22908 1.33581 7.78951 2.02713 7.78951H5.97135C6.66267 7.78951 7.22309 7.22908 7.22309 6.53777V4.11994C7.22309 3.51307 6.79121 3.00706 6.21803 2.89251ZM4.96629 2.86821V2.48113C4.96629 1.94697 4.53327 1.51394 3.99911 1.51394C3.46495 1.51394 3.03193 1.94697 3.03193 2.48113V2.86821H4.96629Z"
          fill="#EBEBEB"/>
</svg>
