<svg width="36" height="15" viewBox="0 0 36 15" fill="none" xmlns="http://www.w3.org/2000/svg">
    <rect x="0.4" y="0.4" width="35.2" height="14.2" rx="7.1" stroke="#EBEBEB" stroke-width="0.8"/>
    <rect x="2" y="2" width="11" height="11" rx="5.5" fill="#EBEBEB"/>
    <path d="M15.9283 10.5V4.68182L18.0021 4.68182C18.4548 4.68182 18.8298 4.7642 19.1271 4.92898C19.4245 5.09375 19.647 5.31913 19.7947 5.60511C19.9425 5.8892 20.0163 6.20928 20.0163 6.56534C20.0163 6.9233 19.9415 7.24527 19.7919 7.53125C19.6442 7.81534 19.4207 8.04072 19.1214 8.20739C18.8241 8.37216 18.45 8.45455 17.9993 8.45455H16.5732V7.71023H17.9197C18.2057 7.71023 18.4377 7.66098 18.6158 7.5625C18.7938 7.46212 18.9245 7.32576 19.0078 7.15341C19.0911 6.98106 19.1328 6.78504 19.1328 6.56534C19.1328 6.34564 19.0911 6.15057 19.0078 5.98011C18.9245 5.80966 18.7929 5.67614 18.6129 5.57955C18.4349 5.48295 18.2 5.43466 17.9084 5.43466H16.8061V10.5H15.9283ZM21.0455 10.5V4.68182H23.1193C23.5701 4.68182 23.9441 4.75947 24.2415 4.91477C24.5407 5.07008 24.7642 5.28504 24.9119 5.55966C25.0597 5.83239 25.1335 6.14773 25.1335 6.50568C25.1335 6.86174 25.0587 7.17519 24.9091 7.44602C24.7614 7.71496 24.5379 7.92424 24.2386 8.07386C23.9413 8.22348 23.5672 8.2983 23.1165 8.2983L21.5455 8.2983V7.54261L23.0369 7.54261C23.321 7.54261 23.5521 7.50189 23.7301 7.42045C23.91 7.33902 24.0417 7.22064 24.125 7.06534C24.2083 6.91004 24.25 6.72348 24.25 6.50568C24.25 6.28598 24.2074 6.09564 24.1222 5.93466C24.0388 5.77367 23.9072 5.65057 23.7273 5.56534C23.5492 5.47822 23.3153 5.43466 23.0256 5.43466H21.9233V10.5H21.0455ZM23.9176 7.875L25.3551 10.5H24.3551L22.946 7.875H23.9176ZM31.2557 7.59091C31.2557 8.21212 31.142 8.74621 30.9148 9.19318C30.6875 9.63826 30.3759 9.98106 29.9801 10.2216C29.5862 10.4602 29.1383 10.5795 28.6364 10.5795C28.1326 10.5795 27.6828 10.4602 27.2869 10.2216C26.893 9.98106 26.5824 9.63731 26.3551 9.19034C26.1278 8.74337 26.0142 8.21023 26.0142 7.59091C26.0142 6.9697 26.1278 6.43655 26.3551 5.99148C26.5824 5.54451 26.893 5.2017 27.2869 4.96307C27.6828 4.72254 28.1326 4.60227 28.6364 4.60227C29.1383 4.60227 29.5862 4.72254 29.9801 4.96307C30.3759 5.2017 30.6875 5.54451 30.9148 5.99148C31.142 6.43655 31.2557 6.9697 31.2557 7.59091ZM30.3864 7.59091C30.3864 7.11742 30.3097 6.71875 30.1562 6.39489C30.0047 6.06913 29.7964 5.82292 29.5312 5.65625C29.268 5.48769 28.9697 5.40341 28.6364 5.40341C28.3011 5.40341 28.0019 5.48769 27.7386 5.65625C27.4754 5.82292 27.267 6.06913 27.1136 6.39489C26.9621 6.71875 26.8864 7.11742 26.8864 7.59091C26.8864 8.06439 26.9621 8.46402 27.1136 8.78977C27.267 9.11364 27.4754 9.35985 27.7386 9.52841C28.0019 9.69508 28.3011 9.77841 28.6364 9.77841C28.9697 9.77841 29.268 9.69508 29.5312 9.52841C29.7964 9.35985 30.0047 9.11364 30.1562 8.78977C30.3097 8.46402 30.3864 8.06439 30.3864 7.59091Z"
          fill="#EBEBEB"/>
</svg>
