<svg width="35" height="15" viewBox="0 0 35 15" fill="none" xmlns="http://www.w3.org/2000/svg">
    <rect width="35" height="15" rx="7.5" fill="#EBEBEB"/>
    <path d="M4.50906 8.02663V8.67045H2.25195V8.02663H4.50906ZM7.74929 8.02663V8.67045H5.49219V8.02663H7.74929Z"
          fill="#EBEBEB"/>
    <rect x="10.5" y="1.5" width="23" height="12" rx="6" fill="#1E1E1E"/>
    <path d="M15.8747 10V4.90909H17.6894C18.0854 4.90909 18.4136 4.98118 18.6737 5.12535C18.9339 5.26953 19.1286 5.46674 19.2579 5.71697C19.3872 5.96555 19.4518 6.24562 19.4518 6.55717C19.4518 6.87038 19.3863 7.15211 19.2554 7.40234C19.1262 7.65092 18.9306 7.84813 18.6688 7.99396C18.4086 8.13814 18.0813 8.21023 17.6869 8.21023H16.439V7.55895H17.6173C17.8675 7.55895 18.0705 7.51586 18.2263 7.42969C18.3821 7.34186 18.4964 7.22254 18.5693 7.07173C18.6423 6.92093 18.6787 6.74941 18.6787 6.55717C18.6787 6.36494 18.6423 6.19425 18.5693 6.0451C18.4964 5.89595 18.3812 5.77912 18.2238 5.6946C18.068 5.61009 17.8625 5.56783 17.6073 5.56783H16.6428V10H15.8747ZM20.3523 10V4.90909H22.1669C22.5613 4.90909 22.8886 4.97704 23.1488 5.11293C23.4106 5.24882 23.6062 5.43691 23.7354 5.6772C23.8647 5.91584 23.9293 6.19176 23.9293 6.50497C23.9293 6.81652 23.8639 7.09079 23.733 7.32777C23.6037 7.56309 23.4081 7.74621 23.1463 7.87713C22.8861 8.00805 22.5588 8.07351 22.1644 8.07351L20.7898 8.07351V7.41229H22.0948C22.3434 7.41229 22.5456 7.37666 22.7013 7.3054C22.8588 7.23414 22.974 7.13056 23.0469 6.99467C23.1198 6.85878 23.1562 6.69555 23.1562 6.50497C23.1562 6.31274 23.119 6.14619 23.0444 6.00533C22.9715 5.86446 22.8563 5.75675 22.6989 5.68217C22.5431 5.60594 22.3384 5.56783 22.0849 5.56783H21.1204V10H20.3523ZM22.8654 7.70313L24.1232 10L23.2482 10L22.0153 7.70313L22.8654 7.70313ZM29.2862 7.45455C29.2862 7.99811 29.1868 8.46544 28.9879 8.85653C28.7891 9.24598 28.5165 9.54593 28.1701 9.75639C27.8254 9.9652 27.4335 10.0696 26.9943 10.0696C26.5535 10.0696 26.1599 9.9652 25.8136 9.75639C25.4689 9.54593 25.1971 9.24515 24.9982 8.85405C24.7994 8.46295 24.6999 7.99645 24.6999 7.45455C24.6999 6.91098 24.7994 6.44448 24.9982 6.05504C25.1971 5.66394 25.4689 5.36399 25.8136 5.15518C26.1599 4.94472 26.5535 4.83949 26.9943 4.83949C27.4335 4.83949 27.8254 4.94472 28.1701 5.15518C28.5165 5.36399 28.7891 5.66394 28.9879 6.05504C29.1868 6.44448 29.2862 6.91098 29.2862 7.45455ZM28.5256 7.45455C28.5256 7.04025 28.4585 6.69141 28.3242 6.40803C28.1916 6.12299 28.0094 5.90755 27.7773 5.76172C27.547 5.61423 27.286 5.54048 26.9943 5.54048C26.701 5.54048 26.4392 5.61423 26.2088 5.76172C25.9785 5.90755 25.7962 6.12299 25.6619 6.40803C25.5294 6.69141 25.4631 7.04025 25.4631 7.45455C25.4631 7.86884 25.5294 8.21851 25.6619 8.50355C25.7962 8.78693 25.9785 9.00237 26.2088 9.14986C26.4392 9.29569 26.701 9.36861 26.9943 9.36861C27.286 9.36861 27.547 9.29569 27.7773 9.14986C28.0094 9.00237 28.1916 8.78693 28.3242 8.50355C28.4585 8.21851 28.5256 7.86884 28.5256 7.45455Z"
          fill="#EBEBEB"/>
</svg>
