<svg width="6" height="9" viewBox="0 0 6 9" fill="none" xmlns="http://www.w3.org/2000/svg">
    <path d="M3.47686 8.51982L5.3462 6.65048C5.51949 6.47719 5.51949 6.19623 5.3462 6.02294C5.17291 5.84965 4.89195 5.84965 4.71866 6.02294L3.35181 7.38979L3.16211 7.57215L2.97464 7.39006L1.60752 6.02294C1.43422 5.84965 1.15326 5.84965 0.979973 6.02294C0.806682 6.19623 0.806682 6.47719 0.979973 6.65048L2.84932 8.51982C3.02261 8.69311 3.30357 8.69311 3.47686 8.51982Z"
          fill="#1E1E1E" stroke="#1E1E1E" stroke-width="0.3"/>
    <path d="M2.84931 0.479933L0.979968 2.34928C0.806677 2.52257 0.806677 2.80353 0.979968 2.97682C1.15326 3.15011 1.43422 3.15011 1.60751 2.97682L2.97436 1.60997L3.16407 1.4276L3.35153 1.60969L4.71866 2.97682C4.89195 3.15011 5.17291 3.15011 5.3462 2.97682C5.51949 2.80353 5.51949 2.52257 5.3462 2.34928L3.47685 0.479933C3.30356 0.306642 3.0226 0.306642 2.84931 0.479933Z"
          fill="#1E1E1E" stroke="#1E1E1E" stroke-width="0.3"/>
</svg>
