<svg width="14" height="14" viewBox="0 0 14 14" fill="none" xmlns="http://www.w3.org/2000/svg">
    <mask id="path-1-outside-1_2119_27524" maskUnits="userSpaceOnUse" x="0" y="0" width="14" height="14" fill="black">
        <rect fill="white" width="14" height="14"/>
        <path fill-rule="evenodd" clip-rule="evenodd"
              d="M6.77678 2.00168C6.76303 2.00267 6.71239 2.00591 6.66425 2.00889C6.24624 2.03478 5.81118 2.11969 5.40882 2.25394C4.92788 2.4144 4.4598 2.65526 4.05252 2.95185C3.83821 3.10792 3.66125 3.26008 3.46043 3.46095C3.27252 3.64891 3.14616 3.79321 3.00155 3.98501C2.63782 4.46746 2.36116 5.01946 2.19532 5.5936C2.09665 5.93522 2.04007 6.25017 2.00933 6.6289C1.99831 6.76462 1.99661 7.20531 2.0066 7.33393C2.06125 8.0374 2.22086 8.62984 2.5158 9.22401C2.71432 9.62394 2.94282 9.96514 3.24075 10.3066C3.3842 10.4709 3.64325 10.7212 3.81829 10.8646C4.4505 11.3824 5.18503 11.7331 5.97902 11.8964C6.44197 11.9917 6.93903 12.0222 7.40699 11.984C8.4249 11.9011 9.38875 11.514 10.1671 10.8756C10.4104 10.676 10.6749 10.4124 10.8662 10.179C11.2081 9.76175 11.471 9.31161 11.6661 8.80907C11.8465 8.34456 11.9482 7.88606 11.9912 7.34393C12 7.23289 12.0031 6.89002 11.9964 6.7589C11.9654 6.1442 11.8347 5.57401 11.598 5.01999C11.5474 4.9016 11.4335 4.6703 11.3703 4.55754C11.1902 4.23639 10.9882 3.95193 10.7415 3.67234C10.6624 3.58262 10.4244 3.34423 10.3355 3.26566C9.98756 2.9581 9.63991 2.72283 9.23511 2.52101C8.65222 2.23039 8.05069 2.06543 7.37448 2.01076C7.28393 2.00344 6.84529 1.99678 6.77678 2.00168ZM5.96901 3.46915C5.99812 3.4823 6.02648 3.50985 6.04322 3.54127L6.05654 3.56627V3.77628V3.98629L6.04102 4.01902C6.01163 4.08104 5.98069 4.10543 5.88278 4.1438C5.37724 4.34193 4.94872 4.64791 4.61178 5.05133C4.3543 5.35963 4.16909 5.70043 4.03435 6.11388C3.83709 6.71916 3.83481 7.37179 4.02782 7.98693C4.07562 8.1393 4.13308 8.28128 4.20874 8.43398C4.32371 8.66603 4.44914 8.85848 4.6164 9.05948C4.69468 9.15353 4.89771 9.3576 4.98618 9.43115C5.17932 9.59169 5.38078 9.72476 5.58757 9.82838C5.67255 9.87096 5.79014 9.92326 5.86415 9.95138C5.89844 9.96442 5.931 9.97742 5.9365 9.98029C5.96986 9.99769 6.01874 10.0538 6.04201 10.1014L6.05904 10.1363V10.3227V10.5091L6.03587 10.5543C6.01149 10.6019 5.99397 10.6199 5.96027 10.6319C5.92371 10.645 5.90218 10.6411 5.78395 10.5998C5.31058 10.4347 4.91822 10.2112 4.54531 9.89412C4.45614 9.8183 4.25114 9.61623 4.17492 9.52902C3.77834 9.07526 3.49825 8.54157 3.35324 7.96339C3.17543 7.25444 3.20568 6.52107 3.44112 5.83309C3.68629 5.11668 4.14141 4.49303 4.7486 4.04145C4.91059 3.92098 5.08183 3.81511 5.27128 3.71831C5.44165 3.63126 5.58992 3.56806 5.76644 3.50725C5.81046 3.49209 5.8566 3.47503 5.86898 3.46934C5.89848 3.45577 5.93922 3.4557 5.96901 3.46915ZM8.21226 3.50084C8.56178 3.62557 8.86205 3.77898 9.14643 3.97813C9.33501 4.11018 9.47619 4.2293 9.65062 4.40354C9.85062 4.60331 9.99366 4.77799 10.1381 4.99883C10.6605 5.79754 10.8659 6.77016 10.708 7.69728C10.545 8.65475 10.0249 9.50512 9.25011 10.0814C9.08813 10.2019 8.91688 10.3077 8.72744 10.4045C8.55706 10.4916 8.40879 10.5548 8.23227 10.6156C8.18825 10.6307 8.14211 10.6478 8.12973 10.6535C8.0674 10.6822 7.99265 10.6513 7.9555 10.5816L7.94217 10.5566V10.3466V10.1365L7.95769 10.1038C7.98869 10.0384 8.0146 10.0194 8.14087 9.96917C8.67805 9.75563 9.13984 9.40535 9.48054 8.953C9.69336 8.67046 9.84559 8.37341 9.96436 8.00896C10.0773 7.66238 10.1291 7.27963 10.1109 6.92641C10.0883 6.48779 9.98714 6.09314 9.79794 5.70569C9.63504 5.37211 9.44278 5.10496 9.17939 4.84619C9.04382 4.713 8.91734 4.60823 8.76495 4.5029C8.58492 4.37846 8.34943 4.25413 8.14474 4.17545C8.1131 4.16329 8.07934 4.14994 8.06972 4.14579C8.03406 4.13044 7.98099 4.07056 7.95714 4.01879L7.94217 3.98629L7.94071 3.79083L7.93924 3.59538L7.96147 3.55082C7.98624 3.50119 7.9969 3.48918 8.0297 3.47392C8.06755 3.45631 8.10151 3.46132 8.21226 3.50084ZM7.16674 4.54648C7.22473 4.56158 7.27199 4.59585 7.2955 4.63986C7.30694 4.66129 7.30696 4.66163 7.30946 4.93383L7.31196 5.20634L7.37198 5.21521C7.76775 5.27374 8.0881 5.54272 8.2123 5.9208C8.2437 6.01638 8.2529 6.0675 8.24597 6.10793C8.23604 6.16589 8.19795 6.20687 8.14025 6.22164C8.11476 6.22817 8.07953 6.22919 7.92346 6.22791C7.72062 6.22625 7.72345 6.22662 7.67873 6.19575C7.65311 6.17806 7.6377 6.15383 7.61497 6.09553C7.57373 5.98975 7.53036 5.91888 7.46991 5.85849C7.40638 5.79501 7.32469 5.74811 7.23194 5.72186C7.05744 5.67246 6.80094 5.67456 6.6412 5.7267C6.38949 5.80884 6.27874 5.99904 6.31969 6.27888C6.33456 6.38054 6.38297 6.46211 6.46513 6.52401C6.58055 6.61095 6.79148 6.67424 7.08939 6.71131C7.79888 6.7996 8.15696 6.9881 8.29988 7.34855C8.33852 7.446 8.36002 7.54838 8.37029 7.68394C8.39511 8.01138 8.29447 8.30003 8.0777 8.52316C7.89721 8.70894 7.66035 8.83023 7.36323 8.88902L7.33447 8.89471V9.14072C7.33447 9.36499 7.33365 9.38969 7.32519 9.42019C7.3078 9.48288 7.27356 9.52631 7.22369 9.54893C7.20332 9.55817 7.19034 9.55881 7.0208 9.55891C6.84744 9.55902 6.83844 9.55856 6.81073 9.54824C6.75919 9.52904 6.72367 9.50057 6.70257 9.46152C6.69191 9.44181 6.69173 9.43748 6.69034 9.16842L6.68893 8.89533L6.62782 8.88402C6.32119 8.82731 6.0889 8.71977 5.91068 8.552C5.82319 8.46965 5.75418 8.37457 5.69616 8.25647C5.65391 8.17045 5.63056 8.10585 5.60583 8.00646C5.57271 7.87339 5.57729 7.8198 5.62591 7.77138C5.66883 7.72865 5.67143 7.72827 5.91443 7.72999L6.12156 7.73145L6.14907 7.74694C6.16506 7.75595 6.18446 7.7727 6.19539 7.78694C6.21474 7.81215 6.21633 7.81647 6.24653 7.92611C6.31965 8.19163 6.49669 8.33476 6.81027 8.38189C6.89197 8.39416 7.07429 8.39684 7.14591 8.38682C7.42579 8.34764 7.62867 8.19357 7.68922 7.97421C7.71395 7.88464 7.71399 7.76278 7.68932 7.67408C7.65183 7.53924 7.54958 7.44469 7.36785 7.37683C7.23935 7.32885 7.0282 7.28051 6.8418 7.25641C6.53975 7.21735 6.25779 7.13553 6.08431 7.03657C6.00153 6.98935 5.95218 6.95205 5.88892 6.88891C5.72495 6.72527 5.64847 6.51487 5.64719 6.22388C5.64672 6.11633 5.65256 6.06209 5.67414 5.97387C5.75978 5.6237 6.04041 5.35163 6.43476 5.23646C6.49477 5.21893 6.59199 5.19734 6.63799 5.19133L6.66425 5.1879V4.95191C6.66425 4.75886 6.6656 4.71071 6.67171 4.68728C6.6926 4.60708 6.74221 4.55512 6.80859 4.54391C6.82135 4.54175 6.90054 4.53972 6.98455 4.5394C7.10711 4.53893 7.14312 4.54033 7.16674 4.54648Z"/>
    </mask>
    <path fill-rule="evenodd" clip-rule="evenodd"
          d="M6.77678 2.00168C6.76303 2.00267 6.71239 2.00591 6.66425 2.00889C6.24624 2.03478 5.81118 2.11969 5.40882 2.25394C4.92788 2.4144 4.4598 2.65526 4.05252 2.95185C3.83821 3.10792 3.66125 3.26008 3.46043 3.46095C3.27252 3.64891 3.14616 3.79321 3.00155 3.98501C2.63782 4.46746 2.36116 5.01946 2.19532 5.5936C2.09665 5.93522 2.04007 6.25017 2.00933 6.6289C1.99831 6.76462 1.99661 7.20531 2.0066 7.33393C2.06125 8.0374 2.22086 8.62984 2.5158 9.22401C2.71432 9.62394 2.94282 9.96514 3.24075 10.3066C3.3842 10.4709 3.64325 10.7212 3.81829 10.8646C4.4505 11.3824 5.18503 11.7331 5.97902 11.8964C6.44197 11.9917 6.93903 12.0222 7.40699 11.984C8.4249 11.9011 9.38875 11.514 10.1671 10.8756C10.4104 10.676 10.6749 10.4124 10.8662 10.179C11.2081 9.76175 11.471 9.31161 11.6661 8.80907C11.8465 8.34456 11.9482 7.88606 11.9912 7.34393C12 7.23289 12.0031 6.89002 11.9964 6.7589C11.9654 6.1442 11.8347 5.57401 11.598 5.01999C11.5474 4.9016 11.4335 4.6703 11.3703 4.55754C11.1902 4.23639 10.9882 3.95193 10.7415 3.67234C10.6624 3.58262 10.4244 3.34423 10.3355 3.26566C9.98756 2.9581 9.63991 2.72283 9.23511 2.52101C8.65222 2.23039 8.05069 2.06543 7.37448 2.01076C7.28393 2.00344 6.84529 1.99678 6.77678 2.00168ZM5.96901 3.46915C5.99812 3.4823 6.02648 3.50985 6.04322 3.54127L6.05654 3.56627V3.77628V3.98629L6.04102 4.01902C6.01163 4.08104 5.98069 4.10543 5.88278 4.1438C5.37724 4.34193 4.94872 4.64791 4.61178 5.05133C4.3543 5.35963 4.16909 5.70043 4.03435 6.11388C3.83709 6.71916 3.83481 7.37179 4.02782 7.98693C4.07562 8.1393 4.13308 8.28128 4.20874 8.43398C4.32371 8.66603 4.44914 8.85848 4.6164 9.05948C4.69468 9.15353 4.89771 9.3576 4.98618 9.43115C5.17932 9.59169 5.38078 9.72476 5.58757 9.82838C5.67255 9.87096 5.79014 9.92326 5.86415 9.95138C5.89844 9.96442 5.931 9.97742 5.9365 9.98029C5.96986 9.99769 6.01874 10.0538 6.04201 10.1014L6.05904 10.1363V10.3227V10.5091L6.03587 10.5543C6.01149 10.6019 5.99397 10.6199 5.96027 10.6319C5.92371 10.645 5.90218 10.6411 5.78395 10.5998C5.31058 10.4347 4.91822 10.2112 4.54531 9.89412C4.45614 9.8183 4.25114 9.61623 4.17492 9.52902C3.77834 9.07526 3.49825 8.54157 3.35324 7.96339C3.17543 7.25444 3.20568 6.52107 3.44112 5.83309C3.68629 5.11668 4.14141 4.49303 4.7486 4.04145C4.91059 3.92098 5.08183 3.81511 5.27128 3.71831C5.44165 3.63126 5.58992 3.56806 5.76644 3.50725C5.81046 3.49209 5.8566 3.47503 5.86898 3.46934C5.89848 3.45577 5.93922 3.4557 5.96901 3.46915ZM8.21226 3.50084C8.56178 3.62557 8.86205 3.77898 9.14643 3.97813C9.33501 4.11018 9.47619 4.2293 9.65062 4.40354C9.85062 4.60331 9.99366 4.77799 10.1381 4.99883C10.6605 5.79754 10.8659 6.77016 10.708 7.69728C10.545 8.65475 10.0249 9.50512 9.25011 10.0814C9.08813 10.2019 8.91688 10.3077 8.72744 10.4045C8.55706 10.4916 8.40879 10.5548 8.23227 10.6156C8.18825 10.6307 8.14211 10.6478 8.12973 10.6535C8.0674 10.6822 7.99265 10.6513 7.9555 10.5816L7.94217 10.5566V10.3466V10.1365L7.95769 10.1038C7.98869 10.0384 8.0146 10.0194 8.14087 9.96917C8.67805 9.75563 9.13984 9.40535 9.48054 8.953C9.69336 8.67046 9.84559 8.37341 9.96436 8.00896C10.0773 7.66238 10.1291 7.27963 10.1109 6.92641C10.0883 6.48779 9.98714 6.09314 9.79794 5.70569C9.63504 5.37211 9.44278 5.10496 9.17939 4.84619C9.04382 4.713 8.91734 4.60823 8.76495 4.5029C8.58492 4.37846 8.34943 4.25413 8.14474 4.17545C8.1131 4.16329 8.07934 4.14994 8.06972 4.14579C8.03406 4.13044 7.98099 4.07056 7.95714 4.01879L7.94217 3.98629L7.94071 3.79083L7.93924 3.59538L7.96147 3.55082C7.98624 3.50119 7.9969 3.48918 8.0297 3.47392C8.06755 3.45631 8.10151 3.46132 8.21226 3.50084ZM7.16674 4.54648C7.22473 4.56158 7.27199 4.59585 7.2955 4.63986C7.30694 4.66129 7.30696 4.66163 7.30946 4.93383L7.31196 5.20634L7.37198 5.21521C7.76775 5.27374 8.0881 5.54272 8.2123 5.9208C8.2437 6.01638 8.2529 6.0675 8.24597 6.10793C8.23604 6.16589 8.19795 6.20687 8.14025 6.22164C8.11476 6.22817 8.07953 6.22919 7.92346 6.22791C7.72062 6.22625 7.72345 6.22662 7.67873 6.19575C7.65311 6.17806 7.6377 6.15383 7.61497 6.09553C7.57373 5.98975 7.53036 5.91888 7.46991 5.85849C7.40638 5.79501 7.32469 5.74811 7.23194 5.72186C7.05744 5.67246 6.80094 5.67456 6.6412 5.7267C6.38949 5.80884 6.27874 5.99904 6.31969 6.27888C6.33456 6.38054 6.38297 6.46211 6.46513 6.52401C6.58055 6.61095 6.79148 6.67424 7.08939 6.71131C7.79888 6.7996 8.15696 6.9881 8.29988 7.34855C8.33852 7.446 8.36002 7.54838 8.37029 7.68394C8.39511 8.01138 8.29447 8.30003 8.0777 8.52316C7.89721 8.70894 7.66035 8.83023 7.36323 8.88902L7.33447 8.89471V9.14072C7.33447 9.36499 7.33365 9.38969 7.32519 9.42019C7.3078 9.48288 7.27356 9.52631 7.22369 9.54893C7.20332 9.55817 7.19034 9.55881 7.0208 9.55891C6.84744 9.55902 6.83844 9.55856 6.81073 9.54824C6.75919 9.52904 6.72367 9.50057 6.70257 9.46152C6.69191 9.44181 6.69173 9.43748 6.69034 9.16842L6.68893 8.89533L6.62782 8.88402C6.32119 8.82731 6.0889 8.71977 5.91068 8.552C5.82319 8.46965 5.75418 8.37457 5.69616 8.25647C5.65391 8.17045 5.63056 8.10585 5.60583 8.00646C5.57271 7.87339 5.57729 7.8198 5.62591 7.77138C5.66883 7.72865 5.67143 7.72827 5.91443 7.72999L6.12156 7.73145L6.14907 7.74694C6.16506 7.75595 6.18446 7.7727 6.19539 7.78694C6.21474 7.81215 6.21633 7.81647 6.24653 7.92611C6.31965 8.19163 6.49669 8.33476 6.81027 8.38189C6.89197 8.39416 7.07429 8.39684 7.14591 8.38682C7.42579 8.34764 7.62867 8.19357 7.68922 7.97421C7.71395 7.88464 7.71399 7.76278 7.68932 7.67408C7.65183 7.53924 7.54958 7.44469 7.36785 7.37683C7.23935 7.32885 7.0282 7.28051 6.8418 7.25641C6.53975 7.21735 6.25779 7.13553 6.08431 7.03657C6.00153 6.98935 5.95218 6.95205 5.88892 6.88891C5.72495 6.72527 5.64847 6.51487 5.64719 6.22388C5.64672 6.11633 5.65256 6.06209 5.67414 5.97387C5.75978 5.6237 6.04041 5.35163 6.43476 5.23646C6.49477 5.21893 6.59199 5.19734 6.63799 5.19133L6.66425 5.1879V4.95191C6.66425 4.75886 6.6656 4.71071 6.67171 4.68728C6.6926 4.60708 6.74221 4.55512 6.80859 4.54391C6.82135 4.54175 6.90054 4.53972 6.98455 4.5394C7.10711 4.53893 7.14312 4.54033 7.16674 4.54648Z"
          fill="#1E1E1E"/>
    <path fill-rule="evenodd" clip-rule="evenodd"
          d="M6.77678 2.00168C6.76303 2.00267 6.71239 2.00591 6.66425 2.00889C6.24624 2.03478 5.81118 2.11969 5.40882 2.25394C4.92788 2.4144 4.4598 2.65526 4.05252 2.95185C3.83821 3.10792 3.66125 3.26008 3.46043 3.46095C3.27252 3.64891 3.14616 3.79321 3.00155 3.98501C2.63782 4.46746 2.36116 5.01946 2.19532 5.5936C2.09665 5.93522 2.04007 6.25017 2.00933 6.6289C1.99831 6.76462 1.99661 7.20531 2.0066 7.33393C2.06125 8.0374 2.22086 8.62984 2.5158 9.22401C2.71432 9.62394 2.94282 9.96514 3.24075 10.3066C3.3842 10.4709 3.64325 10.7212 3.81829 10.8646C4.4505 11.3824 5.18503 11.7331 5.97902 11.8964C6.44197 11.9917 6.93903 12.0222 7.40699 11.984C8.4249 11.9011 9.38875 11.514 10.1671 10.8756C10.4104 10.676 10.6749 10.4124 10.8662 10.179C11.2081 9.76175 11.471 9.31161 11.6661 8.80907C11.8465 8.34456 11.9482 7.88606 11.9912 7.34393C12 7.23289 12.0031 6.89002 11.9964 6.7589C11.9654 6.1442 11.8347 5.57401 11.598 5.01999C11.5474 4.9016 11.4335 4.6703 11.3703 4.55754C11.1902 4.23639 10.9882 3.95193 10.7415 3.67234C10.6624 3.58262 10.4244 3.34423 10.3355 3.26566C9.98756 2.9581 9.63991 2.72283 9.23511 2.52101C8.65222 2.23039 8.05069 2.06543 7.37448 2.01076C7.28393 2.00344 6.84529 1.99678 6.77678 2.00168ZM5.96901 3.46915C5.99812 3.4823 6.02648 3.50985 6.04322 3.54127L6.05654 3.56627V3.77628V3.98629L6.04102 4.01902C6.01163 4.08104 5.98069 4.10543 5.88278 4.1438C5.37724 4.34193 4.94872 4.64791 4.61178 5.05133C4.3543 5.35963 4.16909 5.70043 4.03435 6.11388C3.83709 6.71916 3.83481 7.37179 4.02782 7.98693C4.07562 8.1393 4.13308 8.28128 4.20874 8.43398C4.32371 8.66603 4.44914 8.85848 4.6164 9.05948C4.69468 9.15353 4.89771 9.3576 4.98618 9.43115C5.17932 9.59169 5.38078 9.72476 5.58757 9.82838C5.67255 9.87096 5.79014 9.92326 5.86415 9.95138C5.89844 9.96442 5.931 9.97742 5.9365 9.98029C5.96986 9.99769 6.01874 10.0538 6.04201 10.1014L6.05904 10.1363V10.3227V10.5091L6.03587 10.5543C6.01149 10.6019 5.99397 10.6199 5.96027 10.6319C5.92371 10.645 5.90218 10.6411 5.78395 10.5998C5.31058 10.4347 4.91822 10.2112 4.54531 9.89412C4.45614 9.8183 4.25114 9.61623 4.17492 9.52902C3.77834 9.07526 3.49825 8.54157 3.35324 7.96339C3.17543 7.25444 3.20568 6.52107 3.44112 5.83309C3.68629 5.11668 4.14141 4.49303 4.7486 4.04145C4.91059 3.92098 5.08183 3.81511 5.27128 3.71831C5.44165 3.63126 5.58992 3.56806 5.76644 3.50725C5.81046 3.49209 5.8566 3.47503 5.86898 3.46934C5.89848 3.45577 5.93922 3.4557 5.96901 3.46915ZM8.21226 3.50084C8.56178 3.62557 8.86205 3.77898 9.14643 3.97813C9.33501 4.11018 9.47619 4.2293 9.65062 4.40354C9.85062 4.60331 9.99366 4.77799 10.1381 4.99883C10.6605 5.79754 10.8659 6.77016 10.708 7.69728C10.545 8.65475 10.0249 9.50512 9.25011 10.0814C9.08813 10.2019 8.91688 10.3077 8.72744 10.4045C8.55706 10.4916 8.40879 10.5548 8.23227 10.6156C8.18825 10.6307 8.14211 10.6478 8.12973 10.6535C8.0674 10.6822 7.99265 10.6513 7.9555 10.5816L7.94217 10.5566V10.3466V10.1365L7.95769 10.1038C7.98869 10.0384 8.0146 10.0194 8.14087 9.96917C8.67805 9.75563 9.13984 9.40535 9.48054 8.953C9.69336 8.67046 9.84559 8.37341 9.96436 8.00896C10.0773 7.66238 10.1291 7.27963 10.1109 6.92641C10.0883 6.48779 9.98714 6.09314 9.79794 5.70569C9.63504 5.37211 9.44278 5.10496 9.17939 4.84619C9.04382 4.713 8.91734 4.60823 8.76495 4.5029C8.58492 4.37846 8.34943 4.25413 8.14474 4.17545C8.1131 4.16329 8.07934 4.14994 8.06972 4.14579C8.03406 4.13044 7.98099 4.07056 7.95714 4.01879L7.94217 3.98629L7.94071 3.79083L7.93924 3.59538L7.96147 3.55082C7.98624 3.50119 7.9969 3.48918 8.0297 3.47392C8.06755 3.45631 8.10151 3.46132 8.21226 3.50084ZM7.16674 4.54648C7.22473 4.56158 7.27199 4.59585 7.2955 4.63986C7.30694 4.66129 7.30696 4.66163 7.30946 4.93383L7.31196 5.20634L7.37198 5.21521C7.76775 5.27374 8.0881 5.54272 8.2123 5.9208C8.2437 6.01638 8.2529 6.0675 8.24597 6.10793C8.23604 6.16589 8.19795 6.20687 8.14025 6.22164C8.11476 6.22817 8.07953 6.22919 7.92346 6.22791C7.72062 6.22625 7.72345 6.22662 7.67873 6.19575C7.65311 6.17806 7.6377 6.15383 7.61497 6.09553C7.57373 5.98975 7.53036 5.91888 7.46991 5.85849C7.40638 5.79501 7.32469 5.74811 7.23194 5.72186C7.05744 5.67246 6.80094 5.67456 6.6412 5.7267C6.38949 5.80884 6.27874 5.99904 6.31969 6.27888C6.33456 6.38054 6.38297 6.46211 6.46513 6.52401C6.58055 6.61095 6.79148 6.67424 7.08939 6.71131C7.79888 6.7996 8.15696 6.9881 8.29988 7.34855C8.33852 7.446 8.36002 7.54838 8.37029 7.68394C8.39511 8.01138 8.29447 8.30003 8.0777 8.52316C7.89721 8.70894 7.66035 8.83023 7.36323 8.88902L7.33447 8.89471V9.14072C7.33447 9.36499 7.33365 9.38969 7.32519 9.42019C7.3078 9.48288 7.27356 9.52631 7.22369 9.54893C7.20332 9.55817 7.19034 9.55881 7.0208 9.55891C6.84744 9.55902 6.83844 9.55856 6.81073 9.54824C6.75919 9.52904 6.72367 9.50057 6.70257 9.46152C6.69191 9.44181 6.69173 9.43748 6.69034 9.16842L6.68893 8.89533L6.62782 8.88402C6.32119 8.82731 6.0889 8.71977 5.91068 8.552C5.82319 8.46965 5.75418 8.37457 5.69616 8.25647C5.65391 8.17045 5.63056 8.10585 5.60583 8.00646C5.57271 7.87339 5.57729 7.8198 5.62591 7.77138C5.66883 7.72865 5.67143 7.72827 5.91443 7.72999L6.12156 7.73145L6.14907 7.74694C6.16506 7.75595 6.18446 7.7727 6.19539 7.78694C6.21474 7.81215 6.21633 7.81647 6.24653 7.92611C6.31965 8.19163 6.49669 8.33476 6.81027 8.38189C6.89197 8.39416 7.07429 8.39684 7.14591 8.38682C7.42579 8.34764 7.62867 8.19357 7.68922 7.97421C7.71395 7.88464 7.71399 7.76278 7.68932 7.67408C7.65183 7.53924 7.54958 7.44469 7.36785 7.37683C7.23935 7.32885 7.0282 7.28051 6.8418 7.25641C6.53975 7.21735 6.25779 7.13553 6.08431 7.03657C6.00153 6.98935 5.95218 6.95205 5.88892 6.88891C5.72495 6.72527 5.64847 6.51487 5.64719 6.22388C5.64672 6.11633 5.65256 6.06209 5.67414 5.97387C5.75978 5.6237 6.04041 5.35163 6.43476 5.23646C6.49477 5.21893 6.59199 5.19734 6.63799 5.19133L6.66425 5.1879V4.95191C6.66425 4.75886 6.6656 4.71071 6.67171 4.68728C6.6926 4.60708 6.74221 4.55512 6.80859 4.54391C6.82135 4.54175 6.90054 4.53972 6.98455 4.5394C7.10711 4.53893 7.14312 4.54033 7.16674 4.54648Z"
          stroke="#EBEBEB" stroke-width="2.25064" mask="url(#path-1-outside-1_2119_27524)"/>
</svg>
