<svg width="16" height="16" viewBox="0 0 16 16" fill="none" xmlns="http://www.w3.org/2000/svg">
    <g style="mix-blend-mode:plus-darker">
        <path fill-rule="evenodd" clip-rule="evenodd"
              d="M7.89335 0.132978C7.87207 0.134502 7.79368 0.139525 7.71917 0.144137C7.0722 0.184195 6.39883 0.31563 5.77607 0.523411C5.03169 0.771769 4.30721 1.14456 3.67683 1.60362C3.34513 1.84518 3.07123 2.08068 2.76041 2.39158C2.46956 2.6825 2.274 2.90585 2.05017 3.20271C1.48719 3.94943 1.05898 4.8038 0.802317 5.69243C0.649594 6.22117 0.562023 6.70866 0.514444 7.29484C0.49739 7.50489 0.49475 8.18699 0.510218 8.38606C0.594808 9.47487 0.841845 10.3918 1.29834 11.3115C1.60561 11.9305 1.95927 12.4586 2.42039 12.987C2.64242 13.2414 3.04337 13.6288 3.3143 13.8507C4.29281 14.6521 5.42969 15.195 6.6586 15.4478C7.37514 15.5952 8.14447 15.6423 8.86878 15.5833C10.4443 15.455 11.9361 14.8559 13.1408 13.8677C13.5173 13.5589 13.9268 13.1509 14.2228 12.7896C14.752 12.1438 15.1589 11.4471 15.4609 10.6692C15.7401 9.95028 15.8975 9.24064 15.964 8.40154C15.9776 8.22967 15.9824 7.69899 15.9722 7.49606C15.9241 6.54463 15.7219 5.66211 15.3555 4.80462C15.2772 4.62137 15.1009 4.26337 15.003 4.08886C14.7244 3.59179 14.4116 3.1515 14.0299 2.71877C13.9074 2.5799 13.539 2.21092 13.4014 2.08932C12.8629 1.6133 12.3248 1.24915 11.6983 0.936768C10.7961 0.48696 9.86507 0.231637 8.81846 0.147024C8.67831 0.135694 7.99938 0.125385 7.89335 0.132978ZM6.64311 2.40428C6.68817 2.42462 6.73205 2.46727 6.75797 2.5159L6.77859 2.5546V2.87964V3.20469L6.75457 3.25535C6.70908 3.35134 6.66119 3.38909 6.50965 3.44849C5.72719 3.75514 5.06394 4.22872 4.54244 4.85313C4.14391 5.3303 3.85725 5.85777 3.6487 6.4977C3.34339 7.43455 3.33987 8.44465 3.63859 9.39676C3.71259 9.63259 3.80152 9.85234 3.91862 10.0887C4.09657 10.4478 4.29071 10.7457 4.54959 11.0568C4.67073 11.2024 4.98498 11.5182 5.12192 11.6321C5.42085 11.8806 5.73266 12.0865 6.05273 12.2469C6.18426 12.3128 6.36626 12.3937 6.48081 12.4373C6.53389 12.4574 6.58428 12.4776 6.59279 12.482C6.64442 12.5089 6.72009 12.5958 6.75609 12.6695L6.78246 12.7234V13.0119V13.3004L6.74659 13.3705C6.70886 13.4442 6.68174 13.472 6.62958 13.4906C6.573 13.5108 6.53967 13.5047 6.35668 13.4409C5.62401 13.1854 5.01673 12.8394 4.43955 12.3486C4.30153 12.2313 3.98425 11.9185 3.86628 11.7836C3.25247 11.0812 2.81895 10.2552 2.5945 9.36031C2.31929 8.26302 2.36612 7.12794 2.73052 6.0631C3.10998 4.95427 3.81441 3.989 4.7542 3.29006C5.00492 3.1036 5.26996 2.93974 5.56318 2.78992C5.82688 2.65518 6.05637 2.55737 6.32959 2.46325C6.39771 2.43978 6.46912 2.41337 6.48828 2.40456C6.53394 2.38357 6.59701 2.38345 6.64311 2.40428ZM10.1151 2.45333C10.6561 2.64637 11.1209 2.88382 11.561 3.19206C11.8529 3.39645 12.0714 3.58082 12.3414 3.85049C12.6509 4.1597 12.8723 4.43006 13.0959 4.77187C13.9044 6.00809 14.2223 7.51347 13.978 8.94844C13.7256 10.4304 12.9208 11.7466 11.7215 12.6385C11.4708 12.825 11.2057 12.9888 10.9125 13.1386C10.6488 13.2734 10.4193 13.3712 10.1461 13.4653C10.078 13.4888 10.0066 13.5152 9.98741 13.524C9.89093 13.5683 9.77524 13.5206 9.71773 13.4127L9.69711 13.374V13.0489V12.7239L9.72113 12.6732C9.76911 12.572 9.80921 12.5425 10.0047 12.4648C10.8361 12.1343 11.5508 11.5921 12.0781 10.892C12.4075 10.4547 12.6432 9.99493 12.827 9.43085C13.0018 8.89443 13.082 8.30201 13.0538 7.75532C13.0189 7.07643 12.8622 6.46561 12.5694 5.86592C12.3173 5.34962 12.0197 4.93612 11.612 4.53561C11.4022 4.32947 11.2064 4.16731 10.9706 4.00428C10.6919 3.81168 10.3275 3.61925 10.0106 3.49746C9.96167 3.47864 9.90942 3.45798 9.89452 3.45157C9.83933 3.4278 9.75718 3.33511 9.72028 3.25499L9.69711 3.20469L9.69484 2.90217L9.69257 2.59965L9.72698 2.53069C9.76532 2.45387 9.78181 2.43527 9.83258 2.41165C9.89117 2.3844 9.94373 2.39215 10.1151 2.45333ZM8.49692 4.07173C8.58668 4.0951 8.65983 4.14815 8.69621 4.21626C8.71392 4.24943 8.71395 4.24996 8.71782 4.67126L8.72169 5.09304L8.81459 5.10678C9.42715 5.19737 9.92297 5.61369 10.1152 6.19886C10.1638 6.3468 10.178 6.42592 10.1673 6.48849C10.1519 6.57821 10.093 6.64163 10.0037 6.6645C9.96423 6.6746 9.90971 6.67618 9.66814 6.6742C9.3542 6.67163 9.35858 6.6722 9.28937 6.62442C9.2497 6.59704 9.22585 6.55955 9.19067 6.46931C9.12685 6.30559 9.05973 6.1959 8.96616 6.10242C8.86783 6.00417 8.74139 5.93157 8.59783 5.89094C8.32775 5.8145 7.93075 5.81775 7.68351 5.89844C7.29391 6.02558 7.1225 6.31997 7.18588 6.7531C7.2089 6.91043 7.28382 7.03669 7.41099 7.13249C7.58963 7.26706 7.91611 7.36502 8.37719 7.42239C9.47532 7.55904 10.0295 7.8508 10.2508 8.40868C10.3106 8.55953 10.3438 8.71798 10.3597 8.9278C10.3981 9.4346 10.2424 9.88136 9.90688 10.2267C9.62752 10.5143 9.26092 10.702 8.80104 10.793L8.75653 10.8018V11.1826C8.75653 11.5297 8.75526 11.5679 8.74216 11.6151C8.71525 11.7121 8.66226 11.7794 8.58507 11.8144C8.55353 11.8287 8.53345 11.8297 8.27104 11.8298C8.00272 11.83 7.98878 11.8293 7.9459 11.8133C7.86613 11.7836 7.81116 11.7395 7.77849 11.6791C7.762 11.6486 7.76172 11.6419 7.75957 11.2254L7.75738 10.8027L7.6628 10.7852C7.1882 10.6975 6.82868 10.531 6.55282 10.2714C6.41742 10.1439 6.3106 9.99673 6.2208 9.81394C6.1554 9.6808 6.11927 9.58082 6.08098 9.42698C6.02973 9.22103 6.03682 9.13808 6.11207 9.06314C6.1785 8.99699 6.18252 8.99641 6.55864 8.99907L6.87923 9.00133L6.9218 9.02531C6.94655 9.03925 6.97658 9.06517 6.9935 9.08722C7.02344 9.12624 7.0259 9.13291 7.07264 9.30261C7.18582 9.71358 7.45983 9.93512 7.94519 10.0081C8.07164 10.0271 8.35382 10.0312 8.46468 10.0157C8.89786 9.95505 9.21188 9.71658 9.3056 9.37706C9.34387 9.23844 9.34394 9.04982 9.30576 8.91253C9.24772 8.70383 9.08946 8.5575 8.80818 8.45246C8.60931 8.3782 8.28249 8.30338 7.99399 8.26608C7.52648 8.20563 7.09007 8.07898 6.82157 7.92581C6.69345 7.85272 6.61706 7.795 6.51914 7.69727C6.26535 7.44399 6.14699 7.11835 6.14501 6.66796C6.14428 6.5015 6.15332 6.41755 6.18672 6.28101C6.31927 5.73902 6.75361 5.31792 7.36398 5.13966C7.45687 5.11253 7.60733 5.07912 7.67853 5.06982L7.71917 5.0645V4.69924C7.71917 4.40045 7.72127 4.32592 7.73072 4.28966C7.76307 4.16553 7.83985 4.0851 7.94258 4.06775C7.96234 4.06441 8.0849 4.06127 8.21493 4.06078C8.40462 4.06004 8.46036 4.06221 8.49692 4.07173Z"
              fill="#1E1E1E"/>
    </g>
</svg>
