<svg width="19" height="19" viewBox="0 0 19 19" fill="none" xmlns="http://www.w3.org/2000/svg">
    <mask id="path-1-outside-1_1725_1193" maskUnits="userSpaceOnUse" x="0" y="0" width="19" height="19" fill="black">
        <rect fill="white" width="19" height="19"/>
        <path fill-rule="evenodd" clip-rule="evenodd"
              d="M9.83483 16.9975C9.85546 16.996 9.93142 16.9911 10.0036 16.9867C10.6306 16.9478 11.2832 16.8205 11.8868 16.6191C12.6082 16.3784 13.3103 16.0171 13.9212 15.5722C14.2427 15.3381 14.5081 15.1099 14.8094 14.8086C15.0912 14.5266 15.2808 14.3102 15.4977 14.0225C16.0433 13.2988 16.4583 12.4708 16.707 11.6096C16.855 11.0972 16.9399 10.6247 16.986 10.0567C17.0025 9.85308 17.0051 9.19204 16.9901 8.99911C16.9081 7.9439 16.6687 7.05523 16.2263 6.16399C15.9285 5.56409 15.5858 5.05229 15.1389 4.54017C14.9237 4.2936 14.5351 3.91814 14.2726 3.70311C13.3242 2.92647 12.2225 2.40031 11.0315 2.15534C10.3371 2.0125 9.59146 1.96677 8.88951 2.02396C7.36264 2.14837 5.91687 2.72899 4.74938 3.68663C4.38446 3.98595 3.98762 4.38134 3.70075 4.73142C3.18783 5.35737 2.79356 6.03258 2.50084 6.7864C2.23027 7.48316 2.07768 8.17091 2.01324 8.9841C2.00004 9.15067 1.99542 9.66497 2.00535 9.86164C2.05191 10.7837 2.24788 11.639 2.60302 12.47C2.67892 12.6476 2.84974 12.9946 2.94456 13.1637C3.21463 13.6454 3.51772 14.0721 3.8877 14.4915C4.00643 14.6261 4.36347 14.9837 4.49679 15.1015C5.01866 15.5628 5.54014 15.9157 6.14734 16.2185C7.02168 16.6544 7.92397 16.9019 8.93828 16.9839C9.0741 16.9948 9.73207 17.0048 9.83483 16.9975ZM11.0465 14.7963C11.0028 14.7766 10.9603 14.7352 10.9352 14.6881L10.9152 14.6506V14.3356V14.0206L10.9385 13.9715C10.9826 13.8784 11.029 13.8419 11.1758 13.7843C11.9341 13.4871 12.5769 13.0281 13.0823 12.423C13.4686 11.9606 13.7464 11.4494 13.9485 10.8292C14.2444 9.92125 14.2478 8.94232 13.9583 8.0196C13.8866 7.79105 13.8004 7.57808 13.6869 7.34904C13.5144 7.00096 13.3263 6.71228 13.0754 6.41078C12.958 6.2697 12.6534 5.96359 12.5207 5.85327C12.231 5.61246 11.9288 5.41286 11.6186 5.25743C11.4912 5.19356 11.3148 5.11511 11.2038 5.07293C11.1523 5.05338 11.1035 5.03387 11.0952 5.02956C11.0452 5.00347 10.9719 4.91929 10.937 4.84789L10.9114 4.7956V4.51601V4.23642L10.9462 4.16853C10.9828 4.09711 11.009 4.07013 11.0596 4.0521C11.1144 4.03254 11.1467 4.03842 11.3241 4.10027C12.0341 4.3479 12.6227 4.6832 13.182 5.15882C13.3158 5.27255 13.6233 5.57565 13.7376 5.70647C14.3325 6.38711 14.7526 7.18765 14.9701 8.05492C15.2369 9.11835 15.1915 10.2184 14.8383 11.2504C14.4706 12.325 13.7879 13.2605 12.8771 13.9378C12.6341 14.1185 12.3773 14.2773 12.0931 14.4225C11.8375 14.5531 11.6151 14.6479 11.3503 14.7391C11.2843 14.7619 11.2151 14.7875 11.1965 14.796C11.1523 14.8163 11.0912 14.8165 11.0465 14.7963ZM7.68161 14.7487C7.15732 14.5616 6.70693 14.3315 6.28035 14.0328C5.99749 13.8347 5.78571 13.656 5.52407 13.3947C5.22407 13.095 5.00951 12.833 4.79286 12.5018C4.00929 11.3037 3.70116 9.84477 3.93799 8.45409C4.18255 7.01788 4.96258 5.74232 6.12484 4.87791C6.36781 4.69721 6.62467 4.5384 6.90885 4.39321C7.1644 4.26263 7.38681 4.16784 7.6516 4.07662C7.71762 4.05388 7.78683 4.02829 7.8054 4.01975C7.8989 3.97676 8.01102 4.02304 8.06676 4.12765L8.08674 4.16515V4.48016V4.79518L8.06346 4.84428C8.01696 4.94239 7.9781 4.97096 7.78869 5.04625C6.98292 5.36656 6.29024 5.89197 5.77919 6.57049C5.45996 6.99432 5.23161 7.43989 5.05345 7.98656C4.88403 8.50642 4.8063 9.08056 4.8336 9.61038C4.86751 10.2683 5.01929 10.8603 5.30309 11.4415C5.54743 11.9418 5.83582 12.3426 6.23091 12.7307C6.43427 12.9305 6.62399 13.0876 6.85258 13.2457C7.12262 13.4323 7.47585 13.6188 7.78289 13.7368C7.83034 13.7551 7.88099 13.7751 7.89543 13.7813C7.9489 13.8043 8.02852 13.8942 8.06429 13.9718L8.08674 14.0206L8.08894 14.3137L8.09114 14.6069L8.05779 14.6738C8.02064 14.7482 8.00466 14.7662 7.95545 14.7891C7.89867 14.8155 7.84773 14.808 7.68161 14.7487ZM9.24989 13.1803C9.1629 13.1576 9.09201 13.1062 9.05675 13.0402C9.03958 13.0081 9.03955 13.0076 9.03581 12.5993L9.03206 12.1905L8.94203 12.1772C8.34837 12.0894 7.86785 11.6859 7.68155 11.1188C7.63444 10.9754 7.62065 10.8987 7.63104 10.8381C7.64594 10.7512 7.70308 10.6897 7.78962 10.6675C7.82787 10.6577 7.88071 10.6562 8.11482 10.6581C8.41906 10.6606 8.41482 10.6601 8.4819 10.7064C8.52034 10.7329 8.54346 10.7692 8.57755 10.8567C8.6394 11.0154 8.70445 11.1217 8.79513 11.2123C8.89043 11.3075 9.01296 11.3778 9.1521 11.4172C9.41384 11.4913 9.79859 11.4882 10.0382 11.41C10.4158 11.2867 10.5819 11.0014 10.5205 10.5817C10.4982 10.4292 10.4256 10.3068 10.3023 10.214C10.1292 10.0836 9.81278 9.98864 9.36592 9.93303C8.30168 9.8006 7.76456 9.51785 7.55018 8.97718C7.49221 8.83099 7.45997 8.67743 7.44456 8.47408C7.40734 7.98292 7.55829 7.54995 7.88345 7.21526C8.15418 6.93659 8.50947 6.75466 8.95516 6.66648L8.9983 6.65794V6.28892C8.9983 5.95252 8.99953 5.91546 9.01221 5.86972C9.0383 5.77568 9.08965 5.71054 9.16446 5.67661C9.19503 5.66274 9.21449 5.66179 9.46879 5.66163C9.72884 5.66147 9.74234 5.66215 9.7839 5.67763C9.86121 5.70644 9.91449 5.74915 9.94615 5.80772C9.96213 5.83728 9.9624 5.84377 9.96448 6.24737L9.96661 6.65701L10.0583 6.67397C10.5182 6.75903 10.8666 6.92035 11.134 7.172C11.2652 7.29553 11.3687 7.43815 11.4558 7.6153C11.5191 7.74432 11.5542 7.84122 11.5913 7.99031C11.6409 8.18991 11.6341 8.2703 11.5611 8.34292C11.4968 8.40703 11.4929 8.40759 11.1283 8.40502L10.8177 8.40283L10.7764 8.37959C10.7524 8.36608 10.7233 8.34095 10.7069 8.31958C10.6779 8.28177 10.6755 8.2753 10.6302 8.11084C10.5205 7.71255 10.255 7.49786 9.78459 7.42717C9.66204 7.40875 9.38857 7.40473 9.28113 7.41977C8.86132 7.47854 8.557 7.70965 8.46617 8.03869C8.42907 8.17303 8.42901 8.35583 8.46602 8.48888C8.52226 8.69114 8.67564 8.83296 8.94823 8.93475C9.14097 9.00673 9.45771 9.07923 9.73729 9.11538C10.1904 9.17397 10.6133 9.29671 10.8735 9.44515C10.9977 9.51598 11.0717 9.57192 11.1666 9.66663C11.4126 9.9121 11.5273 10.2277 11.5292 10.6642C11.5299 10.8255 11.5212 10.9069 11.4888 11.0392C11.3603 11.5645 10.9394 11.9726 10.3479 12.1453C10.2578 12.1716 10.112 12.204 10.043 12.213L10.0036 12.2182V12.5721C10.0036 12.8617 10.0016 12.9339 9.99244 12.9691C9.96109 13.0894 9.88668 13.1673 9.78712 13.1841C9.76797 13.1874 9.64919 13.1904 9.52317 13.1909C9.33934 13.1916 9.28532 13.1895 9.24989 13.1803Z"/>
    </mask>
    <path fill-rule="evenodd" clip-rule="evenodd"
          d="M9.83483 16.9975C9.85546 16.996 9.93142 16.9911 10.0036 16.9867C10.6306 16.9478 11.2832 16.8205 11.8868 16.6191C12.6082 16.3784 13.3103 16.0171 13.9212 15.5722C14.2427 15.3381 14.5081 15.1099 14.8094 14.8086C15.0912 14.5266 15.2808 14.3102 15.4977 14.0225C16.0433 13.2988 16.4583 12.4708 16.707 11.6096C16.855 11.0972 16.9399 10.6247 16.986 10.0567C17.0025 9.85308 17.0051 9.19204 16.9901 8.99911C16.9081 7.9439 16.6687 7.05523 16.2263 6.16399C15.9285 5.56409 15.5858 5.05229 15.1389 4.54017C14.9237 4.2936 14.5351 3.91814 14.2726 3.70311C13.3242 2.92647 12.2225 2.40031 11.0315 2.15534C10.3371 2.0125 9.59146 1.96677 8.88951 2.02396C7.36264 2.14837 5.91687 2.72899 4.74938 3.68663C4.38446 3.98595 3.98762 4.38134 3.70075 4.73142C3.18783 5.35737 2.79356 6.03258 2.50084 6.7864C2.23027 7.48316 2.07768 8.17091 2.01324 8.9841C2.00004 9.15067 1.99542 9.66497 2.00535 9.86164C2.05191 10.7837 2.24788 11.639 2.60302 12.47C2.67892 12.6476 2.84974 12.9946 2.94456 13.1637C3.21463 13.6454 3.51772 14.0721 3.8877 14.4915C4.00643 14.6261 4.36347 14.9837 4.49679 15.1015C5.01866 15.5628 5.54014 15.9157 6.14734 16.2185C7.02168 16.6544 7.92397 16.9019 8.93828 16.9839C9.0741 16.9948 9.73207 17.0048 9.83483 16.9975ZM11.0465 14.7963C11.0028 14.7766 10.9603 14.7352 10.9352 14.6881L10.9152 14.6506V14.3356V14.0206L10.9385 13.9715C10.9826 13.8784 11.029 13.8419 11.1758 13.7843C11.9341 13.4871 12.5769 13.0281 13.0823 12.423C13.4686 11.9606 13.7464 11.4494 13.9485 10.8292C14.2444 9.92125 14.2478 8.94232 13.9583 8.0196C13.8866 7.79105 13.8004 7.57808 13.6869 7.34904C13.5144 7.00096 13.3263 6.71228 13.0754 6.41078C12.958 6.2697 12.6534 5.96359 12.5207 5.85327C12.231 5.61246 11.9288 5.41286 11.6186 5.25743C11.4912 5.19356 11.3148 5.11511 11.2038 5.07293C11.1523 5.05338 11.1035 5.03387 11.0952 5.02956C11.0452 5.00347 10.9719 4.91929 10.937 4.84789L10.9114 4.7956V4.51601V4.23642L10.9462 4.16853C10.9828 4.09711 11.009 4.07013 11.0596 4.0521C11.1144 4.03254 11.1467 4.03842 11.3241 4.10027C12.0341 4.3479 12.6227 4.6832 13.182 5.15882C13.3158 5.27255 13.6233 5.57565 13.7376 5.70647C14.3325 6.38711 14.7526 7.18765 14.9701 8.05492C15.2369 9.11835 15.1915 10.2184 14.8383 11.2504C14.4706 12.325 13.7879 13.2605 12.8771 13.9378C12.6341 14.1185 12.3773 14.2773 12.0931 14.4225C11.8375 14.5531 11.6151 14.6479 11.3503 14.7391C11.2843 14.7619 11.2151 14.7875 11.1965 14.796C11.1523 14.8163 11.0912 14.8165 11.0465 14.7963ZM7.68161 14.7487C7.15732 14.5616 6.70693 14.3315 6.28035 14.0328C5.99749 13.8347 5.78571 13.656 5.52407 13.3947C5.22407 13.095 5.00951 12.833 4.79286 12.5018C4.00929 11.3037 3.70116 9.84477 3.93799 8.45409C4.18255 7.01788 4.96258 5.74232 6.12484 4.87791C6.36781 4.69721 6.62467 4.5384 6.90885 4.39321C7.1644 4.26263 7.38681 4.16784 7.6516 4.07662C7.71762 4.05388 7.78683 4.02829 7.8054 4.01975C7.8989 3.97676 8.01102 4.02304 8.06676 4.12765L8.08674 4.16515V4.48016V4.79518L8.06346 4.84428C8.01696 4.94239 7.9781 4.97096 7.78869 5.04625C6.98292 5.36656 6.29024 5.89197 5.77919 6.57049C5.45996 6.99432 5.23161 7.43989 5.05345 7.98656C4.88403 8.50642 4.8063 9.08056 4.8336 9.61038C4.86751 10.2683 5.01929 10.8603 5.30309 11.4415C5.54743 11.9418 5.83582 12.3426 6.23091 12.7307C6.43427 12.9305 6.62399 13.0876 6.85258 13.2457C7.12262 13.4323 7.47585 13.6188 7.78289 13.7368C7.83034 13.7551 7.88099 13.7751 7.89543 13.7813C7.9489 13.8043 8.02852 13.8942 8.06429 13.9718L8.08674 14.0206L8.08894 14.3137L8.09114 14.6069L8.05779 14.6738C8.02064 14.7482 8.00466 14.7662 7.95545 14.7891C7.89867 14.8155 7.84773 14.808 7.68161 14.7487ZM9.24989 13.1803C9.1629 13.1576 9.09201 13.1062 9.05675 13.0402C9.03958 13.0081 9.03955 13.0076 9.03581 12.5993L9.03206 12.1905L8.94203 12.1772C8.34837 12.0894 7.86785 11.6859 7.68155 11.1188C7.63444 10.9754 7.62065 10.8987 7.63104 10.8381C7.64594 10.7512 7.70308 10.6897 7.78962 10.6675C7.82787 10.6577 7.88071 10.6562 8.11482 10.6581C8.41906 10.6606 8.41482 10.6601 8.4819 10.7064C8.52034 10.7329 8.54346 10.7692 8.57755 10.8567C8.6394 11.0154 8.70445 11.1217 8.79513 11.2123C8.89043 11.3075 9.01296 11.3778 9.1521 11.4172C9.41384 11.4913 9.79859 11.4882 10.0382 11.41C10.4158 11.2867 10.5819 11.0014 10.5205 10.5817C10.4982 10.4292 10.4256 10.3068 10.3023 10.214C10.1292 10.0836 9.81278 9.98864 9.36592 9.93303C8.30168 9.8006 7.76456 9.51785 7.55018 8.97718C7.49221 8.83099 7.45997 8.67743 7.44456 8.47408C7.40734 7.98292 7.55829 7.54995 7.88345 7.21526C8.15418 6.93659 8.50947 6.75466 8.95516 6.66648L8.9983 6.65794V6.28892C8.9983 5.95252 8.99953 5.91546 9.01221 5.86972C9.0383 5.77568 9.08965 5.71054 9.16446 5.67661C9.19503 5.66274 9.21449 5.66179 9.46879 5.66163C9.72884 5.66147 9.74234 5.66215 9.7839 5.67763C9.86121 5.70644 9.91449 5.74915 9.94615 5.80772C9.96213 5.83728 9.9624 5.84377 9.96448 6.24737L9.96661 6.65701L10.0583 6.67397C10.5182 6.75903 10.8666 6.92035 11.134 7.172C11.2652 7.29553 11.3687 7.43815 11.4558 7.6153C11.5191 7.74432 11.5542 7.84122 11.5913 7.99031C11.6409 8.18991 11.6341 8.2703 11.5611 8.34292C11.4968 8.40703 11.4929 8.40759 11.1283 8.40502L10.8177 8.40283L10.7764 8.37959C10.7524 8.36608 10.7233 8.34095 10.7069 8.31958C10.6779 8.28177 10.6755 8.2753 10.6302 8.11084C10.5205 7.71255 10.255 7.49786 9.78459 7.42717C9.66204 7.40875 9.38857 7.40473 9.28113 7.41977C8.86132 7.47854 8.557 7.70965 8.46617 8.03869C8.42907 8.17303 8.42901 8.35583 8.46602 8.48888C8.52226 8.69114 8.67564 8.83296 8.94823 8.93475C9.14097 9.00673 9.45771 9.07923 9.73729 9.11538C10.1904 9.17397 10.6133 9.29671 10.8735 9.44515C10.9977 9.51598 11.0717 9.57192 11.1666 9.66663C11.4126 9.9121 11.5273 10.2277 11.5292 10.6642C11.5299 10.8255 11.5212 10.9069 11.4888 11.0392C11.3603 11.5645 10.9394 11.9726 10.3479 12.1453C10.2578 12.1716 10.112 12.204 10.043 12.213L10.0036 12.2182V12.5721C10.0036 12.8617 10.0016 12.9339 9.99244 12.9691C9.96109 13.0894 9.88668 13.1673 9.78712 13.1841C9.76797 13.1874 9.64919 13.1904 9.52317 13.1909C9.33934 13.1916 9.28532 13.1895 9.24989 13.1803Z"
          fill="#1E1E1E"/>
    <path fill-rule="evenodd" clip-rule="evenodd"
          d="M9.83483 16.9975C9.85546 16.996 9.93142 16.9911 10.0036 16.9867C10.6306 16.9478 11.2832 16.8205 11.8868 16.6191C12.6082 16.3784 13.3103 16.0171 13.9212 15.5722C14.2427 15.3381 14.5081 15.1099 14.8094 14.8086C15.0912 14.5266 15.2808 14.3102 15.4977 14.0225C16.0433 13.2988 16.4583 12.4708 16.707 11.6096C16.855 11.0972 16.9399 10.6247 16.986 10.0567C17.0025 9.85308 17.0051 9.19204 16.9901 8.99911C16.9081 7.9439 16.6687 7.05523 16.2263 6.16399C15.9285 5.56409 15.5858 5.05229 15.1389 4.54017C14.9237 4.2936 14.5351 3.91814 14.2726 3.70311C13.3242 2.92647 12.2225 2.40031 11.0315 2.15534C10.3371 2.0125 9.59146 1.96677 8.88951 2.02396C7.36264 2.14837 5.91687 2.72899 4.74938 3.68663C4.38446 3.98595 3.98762 4.38134 3.70075 4.73142C3.18783 5.35737 2.79356 6.03258 2.50084 6.7864C2.23027 7.48316 2.07768 8.17091 2.01324 8.9841C2.00004 9.15067 1.99542 9.66497 2.00535 9.86164C2.05191 10.7837 2.24788 11.639 2.60302 12.47C2.67892 12.6476 2.84974 12.9946 2.94456 13.1637C3.21463 13.6454 3.51772 14.0721 3.8877 14.4915C4.00643 14.6261 4.36347 14.9837 4.49679 15.1015C5.01866 15.5628 5.54014 15.9157 6.14734 16.2185C7.02168 16.6544 7.92397 16.9019 8.93828 16.9839C9.0741 16.9948 9.73207 17.0048 9.83483 16.9975ZM11.0465 14.7963C11.0028 14.7766 10.9603 14.7352 10.9352 14.6881L10.9152 14.6506V14.3356V14.0206L10.9385 13.9715C10.9826 13.8784 11.029 13.8419 11.1758 13.7843C11.9341 13.4871 12.5769 13.0281 13.0823 12.423C13.4686 11.9606 13.7464 11.4494 13.9485 10.8292C14.2444 9.92125 14.2478 8.94232 13.9583 8.0196C13.8866 7.79105 13.8004 7.57808 13.6869 7.34904C13.5144 7.00096 13.3263 6.71228 13.0754 6.41078C12.958 6.2697 12.6534 5.96359 12.5207 5.85327C12.231 5.61246 11.9288 5.41286 11.6186 5.25743C11.4912 5.19356 11.3148 5.11511 11.2038 5.07293C11.1523 5.05338 11.1035 5.03387 11.0952 5.02956C11.0452 5.00347 10.9719 4.91929 10.937 4.84789L10.9114 4.7956V4.51601V4.23642L10.9462 4.16853C10.9828 4.09711 11.009 4.07013 11.0596 4.0521C11.1144 4.03254 11.1467 4.03842 11.3241 4.10027C12.0341 4.3479 12.6227 4.6832 13.182 5.15882C13.3158 5.27255 13.6233 5.57565 13.7376 5.70647C14.3325 6.38711 14.7526 7.18765 14.9701 8.05492C15.2369 9.11835 15.1915 10.2184 14.8383 11.2504C14.4706 12.325 13.7879 13.2605 12.8771 13.9378C12.6341 14.1185 12.3773 14.2773 12.0931 14.4225C11.8375 14.5531 11.6151 14.6479 11.3503 14.7391C11.2843 14.7619 11.2151 14.7875 11.1965 14.796C11.1523 14.8163 11.0912 14.8165 11.0465 14.7963ZM7.68161 14.7487C7.15732 14.5616 6.70693 14.3315 6.28035 14.0328C5.99749 13.8347 5.78571 13.656 5.52407 13.3947C5.22407 13.095 5.00951 12.833 4.79286 12.5018C4.00929 11.3037 3.70116 9.84477 3.93799 8.45409C4.18255 7.01788 4.96258 5.74232 6.12484 4.87791C6.36781 4.69721 6.62467 4.5384 6.90885 4.39321C7.1644 4.26263 7.38681 4.16784 7.6516 4.07662C7.71762 4.05388 7.78683 4.02829 7.8054 4.01975C7.8989 3.97676 8.01102 4.02304 8.06676 4.12765L8.08674 4.16515V4.48016V4.79518L8.06346 4.84428C8.01696 4.94239 7.9781 4.97096 7.78869 5.04625C6.98292 5.36656 6.29024 5.89197 5.77919 6.57049C5.45996 6.99432 5.23161 7.43989 5.05345 7.98656C4.88403 8.50642 4.8063 9.08056 4.8336 9.61038C4.86751 10.2683 5.01929 10.8603 5.30309 11.4415C5.54743 11.9418 5.83582 12.3426 6.23091 12.7307C6.43427 12.9305 6.62399 13.0876 6.85258 13.2457C7.12262 13.4323 7.47585 13.6188 7.78289 13.7368C7.83034 13.7551 7.88099 13.7751 7.89543 13.7813C7.9489 13.8043 8.02852 13.8942 8.06429 13.9718L8.08674 14.0206L8.08894 14.3137L8.09114 14.6069L8.05779 14.6738C8.02064 14.7482 8.00466 14.7662 7.95545 14.7891C7.89867 14.8155 7.84773 14.808 7.68161 14.7487ZM9.24989 13.1803C9.1629 13.1576 9.09201 13.1062 9.05675 13.0402C9.03958 13.0081 9.03955 13.0076 9.03581 12.5993L9.03206 12.1905L8.94203 12.1772C8.34837 12.0894 7.86785 11.6859 7.68155 11.1188C7.63444 10.9754 7.62065 10.8987 7.63104 10.8381C7.64594 10.7512 7.70308 10.6897 7.78962 10.6675C7.82787 10.6577 7.88071 10.6562 8.11482 10.6581C8.41906 10.6606 8.41482 10.6601 8.4819 10.7064C8.52034 10.7329 8.54346 10.7692 8.57755 10.8567C8.6394 11.0154 8.70445 11.1217 8.79513 11.2123C8.89043 11.3075 9.01296 11.3778 9.1521 11.4172C9.41384 11.4913 9.79859 11.4882 10.0382 11.41C10.4158 11.2867 10.5819 11.0014 10.5205 10.5817C10.4982 10.4292 10.4256 10.3068 10.3023 10.214C10.1292 10.0836 9.81278 9.98864 9.36592 9.93303C8.30168 9.8006 7.76456 9.51785 7.55018 8.97718C7.49221 8.83099 7.45997 8.67743 7.44456 8.47408C7.40734 7.98292 7.55829 7.54995 7.88345 7.21526C8.15418 6.93659 8.50947 6.75466 8.95516 6.66648L8.9983 6.65794V6.28892C8.9983 5.95252 8.99953 5.91546 9.01221 5.86972C9.0383 5.77568 9.08965 5.71054 9.16446 5.67661C9.19503 5.66274 9.21449 5.66179 9.46879 5.66163C9.72884 5.66147 9.74234 5.66215 9.7839 5.67763C9.86121 5.70644 9.91449 5.74915 9.94615 5.80772C9.96213 5.83728 9.9624 5.84377 9.96448 6.24737L9.96661 6.65701L10.0583 6.67397C10.5182 6.75903 10.8666 6.92035 11.134 7.172C11.2652 7.29553 11.3687 7.43815 11.4558 7.6153C11.5191 7.74432 11.5542 7.84122 11.5913 7.99031C11.6409 8.18991 11.6341 8.2703 11.5611 8.34292C11.4968 8.40703 11.4929 8.40759 11.1283 8.40502L10.8177 8.40283L10.7764 8.37959C10.7524 8.36608 10.7233 8.34095 10.7069 8.31958C10.6779 8.28177 10.6755 8.2753 10.6302 8.11084C10.5205 7.71255 10.255 7.49786 9.78459 7.42717C9.66204 7.40875 9.38857 7.40473 9.28113 7.41977C8.86132 7.47854 8.557 7.70965 8.46617 8.03869C8.42907 8.17303 8.42901 8.35583 8.46602 8.48888C8.52226 8.69114 8.67564 8.83296 8.94823 8.93475C9.14097 9.00673 9.45771 9.07923 9.73729 9.11538C10.1904 9.17397 10.6133 9.29671 10.8735 9.44515C10.9977 9.51598 11.0717 9.57192 11.1666 9.66663C11.4126 9.9121 11.5273 10.2277 11.5292 10.6642C11.5299 10.8255 11.5212 10.9069 11.4888 11.0392C11.3603 11.5645 10.9394 11.9726 10.3479 12.1453C10.2578 12.1716 10.112 12.204 10.043 12.213L10.0036 12.2182V12.5721C10.0036 12.8617 10.0016 12.9339 9.99244 12.9691C9.96109 13.0894 9.88668 13.1673 9.78712 13.1841C9.76797 13.1874 9.64919 13.1904 9.52317 13.1909C9.33934 13.1916 9.28532 13.1895 9.24989 13.1803Z"
          stroke="#EBEBEB" stroke-width="4" mask="url(#path-1-outside-1_1725_1193)"/>
    <path fill-rule="evenodd" clip-rule="evenodd"
          d="M9.83483 16.9975C9.85546 16.996 9.93142 16.9911 10.0036 16.9867C10.6306 16.9478 11.2832 16.8205 11.8868 16.6191C12.6082 16.3784 13.3103 16.0171 13.9212 15.5722C14.2427 15.3381 14.5081 15.1099 14.8094 14.8086C15.0912 14.5266 15.2808 14.3102 15.4977 14.0225C16.0433 13.2988 16.4583 12.4708 16.707 11.6096C16.855 11.0972 16.9399 10.6247 16.986 10.0567C17.0025 9.85308 17.0051 9.19204 16.9901 8.99911C16.9081 7.9439 16.6687 7.05523 16.2263 6.16399C15.9285 5.56409 15.5858 5.05229 15.1389 4.54017C14.9237 4.2936 14.5351 3.91814 14.2726 3.70311C13.3242 2.92647 12.2225 2.40031 11.0315 2.15534C10.3371 2.0125 9.59146 1.96677 8.88951 2.02396C7.36264 2.14837 5.91687 2.72899 4.74938 3.68663C4.38446 3.98595 3.98762 4.38134 3.70075 4.73142C3.18783 5.35737 2.79356 6.03258 2.50084 6.7864C2.23027 7.48316 2.07768 8.17091 2.01324 8.9841C2.00004 9.15067 1.99542 9.66497 2.00535 9.86164C2.05191 10.7837 2.24788 11.639 2.60302 12.47C2.67892 12.6476 2.84974 12.9946 2.94456 13.1637C3.21463 13.6454 3.51772 14.0721 3.8877 14.4915C4.00643 14.6261 4.36347 14.9837 4.49679 15.1015C5.01866 15.5628 5.54014 15.9157 6.14734 16.2185C7.02168 16.6544 7.92397 16.9019 8.93828 16.9839C9.0741 16.9948 9.73207 17.0048 9.83483 16.9975ZM11.0465 14.7963C11.0028 14.7766 10.9603 14.7352 10.9352 14.6881L10.9152 14.6506V14.3356V14.0206L10.9385 13.9715C10.9826 13.8784 11.029 13.8419 11.1758 13.7843C11.9341 13.4871 12.5769 13.0281 13.0823 12.423C13.4686 11.9606 13.7464 11.4494 13.9485 10.8292C14.2444 9.92125 14.2478 8.94232 13.9583 8.0196C13.8866 7.79105 13.8004 7.57808 13.6869 7.34904C13.5144 7.00096 13.3263 6.71228 13.0754 6.41078C12.958 6.2697 12.6534 5.96359 12.5207 5.85327C12.231 5.61246 11.9288 5.41286 11.6186 5.25743C11.4912 5.19356 11.3148 5.11511 11.2038 5.07293C11.1523 5.05338 11.1035 5.03387 11.0952 5.02956C11.0452 5.00347 10.9719 4.91929 10.937 4.84789L10.9114 4.7956V4.51601V4.23642L10.9462 4.16853C10.9828 4.09711 11.009 4.07013 11.0596 4.0521C11.1144 4.03254 11.1467 4.03842 11.3241 4.10027C12.0341 4.3479 12.6227 4.6832 13.182 5.15882C13.3158 5.27255 13.6233 5.57565 13.7376 5.70647C14.3325 6.38711 14.7526 7.18765 14.9701 8.05492C15.2369 9.11835 15.1915 10.2184 14.8383 11.2504C14.4706 12.325 13.7879 13.2605 12.8771 13.9378C12.6341 14.1185 12.3773 14.2773 12.0931 14.4225C11.8375 14.5531 11.6151 14.6479 11.3503 14.7391C11.2843 14.7619 11.2151 14.7875 11.1965 14.796C11.1523 14.8163 11.0912 14.8165 11.0465 14.7963ZM7.68161 14.7487C7.15732 14.5616 6.70693 14.3315 6.28035 14.0328C5.99749 13.8347 5.78571 13.656 5.52407 13.3947C5.22407 13.095 5.00951 12.833 4.79286 12.5018C4.00929 11.3037 3.70116 9.84477 3.93799 8.45409C4.18255 7.01788 4.96258 5.74232 6.12484 4.87791C6.36781 4.69721 6.62467 4.5384 6.90885 4.39321C7.1644 4.26263 7.38681 4.16784 7.6516 4.07662C7.71762 4.05388 7.78683 4.02829 7.8054 4.01975C7.8989 3.97676 8.01102 4.02304 8.06676 4.12765L8.08674 4.16515V4.48016V4.79518L8.06346 4.84428C8.01696 4.94239 7.9781 4.97096 7.78869 5.04625C6.98292 5.36656 6.29024 5.89197 5.77919 6.57049C5.45996 6.99432 5.23161 7.43989 5.05345 7.98656C4.88403 8.50642 4.8063 9.08056 4.8336 9.61038C4.86751 10.2683 5.01929 10.8603 5.30309 11.4415C5.54743 11.9418 5.83582 12.3426 6.23091 12.7307C6.43427 12.9305 6.62399 13.0876 6.85258 13.2457C7.12262 13.4323 7.47585 13.6188 7.78289 13.7368C7.83034 13.7551 7.88099 13.7751 7.89543 13.7813C7.9489 13.8043 8.02852 13.8942 8.06429 13.9718L8.08674 14.0206L8.08894 14.3137L8.09114 14.6069L8.05779 14.6738C8.02064 14.7482 8.00466 14.7662 7.95545 14.7891C7.89867 14.8155 7.84773 14.808 7.68161 14.7487ZM9.24989 13.1803C9.1629 13.1576 9.09201 13.1062 9.05675 13.0402C9.03958 13.0081 9.03955 13.0076 9.03581 12.5993L9.03206 12.1905L8.94203 12.1772C8.34837 12.0894 7.86785 11.6859 7.68155 11.1188C7.63444 10.9754 7.62065 10.8987 7.63104 10.8381C7.64594 10.7512 7.70308 10.6897 7.78962 10.6675C7.82787 10.6577 7.88071 10.6562 8.11482 10.6581C8.41906 10.6606 8.41482 10.6601 8.4819 10.7064C8.52034 10.7329 8.54346 10.7692 8.57755 10.8567C8.6394 11.0154 8.70445 11.1217 8.79513 11.2123C8.89043 11.3075 9.01296 11.3778 9.1521 11.4172C9.41384 11.4913 9.79859 11.4882 10.0382 11.41C10.4158 11.2867 10.5819 11.0014 10.5205 10.5817C10.4982 10.4292 10.4256 10.3068 10.3023 10.214C10.1292 10.0836 9.81278 9.98864 9.36592 9.93303C8.30168 9.8006 7.76456 9.51785 7.55018 8.97718C7.49221 8.83099 7.45997 8.67743 7.44456 8.47408C7.40734 7.98292 7.55829 7.54995 7.88345 7.21526C8.15418 6.93659 8.50947 6.75466 8.95516 6.66648L8.9983 6.65794V6.28892C8.9983 5.95252 8.99953 5.91546 9.01221 5.86972C9.0383 5.77568 9.08965 5.71054 9.16446 5.67661C9.19503 5.66274 9.21449 5.66179 9.46879 5.66163C9.72884 5.66147 9.74234 5.66215 9.7839 5.67763C9.86121 5.70644 9.91449 5.74915 9.94615 5.80772C9.96213 5.83728 9.9624 5.84377 9.96448 6.24737L9.96661 6.65701L10.0583 6.67397C10.5182 6.75903 10.8666 6.92035 11.134 7.172C11.2652 7.29553 11.3687 7.43815 11.4558 7.6153C11.5191 7.74432 11.5542 7.84122 11.5913 7.99031C11.6409 8.18991 11.6341 8.2703 11.5611 8.34292C11.4968 8.40703 11.4929 8.40759 11.1283 8.40502L10.8177 8.40283L10.7764 8.37959C10.7524 8.36608 10.7233 8.34095 10.7069 8.31958C10.6779 8.28177 10.6755 8.2753 10.6302 8.11084C10.5205 7.71255 10.255 7.49786 9.78459 7.42717C9.66204 7.40875 9.38857 7.40473 9.28113 7.41977C8.86132 7.47854 8.557 7.70965 8.46617 8.03869C8.42907 8.17303 8.42901 8.35583 8.46602 8.48888C8.52226 8.69114 8.67564 8.83296 8.94823 8.93475C9.14097 9.00673 9.45771 9.07923 9.73729 9.11538C10.1904 9.17397 10.6133 9.29671 10.8735 9.44515C10.9977 9.51598 11.0717 9.57192 11.1666 9.66663C11.4126 9.9121 11.5273 10.2277 11.5292 10.6642C11.5299 10.8255 11.5212 10.9069 11.4888 11.0392C11.3603 11.5645 10.9394 11.9726 10.3479 12.1453C10.2578 12.1716 10.112 12.204 10.043 12.213L10.0036 12.2182V12.5721C10.0036 12.8617 10.0016 12.9339 9.99244 12.9691C9.96109 13.0894 9.88668 13.1673 9.78712 13.1841C9.76797 13.1874 9.64919 13.1904 9.52317 13.1909C9.33934 13.1916 9.28532 13.1895 9.24989 13.1803Z"
          stroke="url(#paint0_linear_1725_1193)" stroke-opacity="0.7" stroke-width="4"
          mask="url(#path-1-outside-1_1725_1193)"/>
    <defs>
        <linearGradient id="paint0_linear_1725_1193" x1="-4.43581" y1="2.85714" x2="23.7405" y2="2.83584"
                        gradientUnits="userSpaceOnUse">
            <stop stop-color="#F3B8D8"/>
            <stop offset="0.1" stop-color="#B793E9"/>
            <stop offset="0.2" stop-color="#9FD4F3"/>
            <stop offset="0.3" stop-color="#FFD2C4"/>
            <stop offset="0.4" stop-color="#FBF3F3"/>
            <stop offset="0.5" stop-color="#D9ABDF"/>
            <stop offset="0.6" stop-color="#AF9CE3"/>
            <stop offset="0.7" stop-color="#AAE4E1"/>
            <stop offset="0.8" stop-color="#C6EAD0"/>
            <stop offset="0.9" stop-color="white"/>
            <stop offset="1" stop-color="#FDB5E4"/>
        </linearGradient>
    </defs>
</svg>
