<svg width="17" height="17" viewBox="0 0 17 17" fill="none" xmlns="http://www.w3.org/2000/svg">
<path fill-rule="evenodd" clip-rule="evenodd" d="M8.32671 0.154648C8.3044 0.156246 8.22225 0.16151 8.14416 0.166345C7.46608 0.208328 6.76034 0.346081 6.10765 0.563851C5.32748 0.824147 4.56817 1.21486 3.90749 1.69599C3.55984 1.94916 3.27278 2.19598 2.94702 2.52182C2.64218 2.82673 2.43722 3.06081 2.20264 3.37195C1.61259 4.15457 1.1638 5.05001 0.894792 5.98135C0.734728 6.53552 0.642947 7.04643 0.593081 7.66079C0.575207 7.88095 0.57244 8.59583 0.588651 8.80448C0.677308 9.94562 0.93622 10.9067 1.41466 11.8705C1.7367 12.5193 2.10736 13.0728 2.59065 13.6266C2.82335 13.8932 3.24358 14.2993 3.52753 14.5318C4.55308 15.3717 5.74461 15.9407 7.0326 16.2057C7.78358 16.3601 8.5899 16.4096 9.34902 16.3477C11.0003 16.2132 12.5638 15.5853 13.8264 14.5496C14.221 14.2259 14.6502 13.7984 14.9604 13.4198C15.5151 12.7428 15.9415 12.0126 16.258 11.1974C16.5507 10.4439 16.7157 9.70013 16.7854 8.8207C16.7996 8.64056 16.8046 8.08438 16.7939 7.87169C16.7435 6.87453 16.5316 5.94958 16.1475 5.05087C16.0655 4.85881 15.8807 4.4836 15.7782 4.30069C15.4861 3.77973 15.1583 3.31828 14.7582 2.86474C14.6298 2.7192 14.2437 2.33248 14.0995 2.20503C13.5352 1.70613 12.9712 1.32448 12.3145 0.997079C11.369 0.525647 10.3932 0.25805 9.29628 0.16937C9.1494 0.157495 8.43784 0.146691 8.32671 0.154648ZM7.01637 2.53513C7.06359 2.55646 7.10959 2.60116 7.13674 2.65212L7.15836 2.69268V3.03335V3.37402L7.13318 3.42712C7.0855 3.52772 7.03531 3.56729 6.87649 3.62954C6.05642 3.95094 5.36128 4.44729 4.81471 5.10171C4.39702 5.60181 4.09658 6.15465 3.87801 6.82534C3.55802 7.80722 3.55433 8.86588 3.86741 9.86376C3.94496 10.1109 4.03817 10.3412 4.16091 10.5889C4.34741 10.9654 4.55088 11.2776 4.8222 11.6036C4.94917 11.7562 5.27853 12.0872 5.42205 12.2065C5.73535 12.467 6.06215 12.6828 6.3976 12.8509C6.53545 12.92 6.72621 13.0048 6.84627 13.0504C6.90189 13.0716 6.9547 13.0927 6.96363 13.0973C7.01774 13.1256 7.09704 13.2166 7.13478 13.2938L7.16241 13.3504V13.6527V13.9551L7.12482 14.0285C7.08528 14.1057 7.05685 14.1349 7.00219 14.1544C6.94288 14.1756 6.90795 14.1692 6.71617 14.1023C5.94827 13.8345 5.3118 13.4719 4.70687 12.9575C4.56222 12.8346 4.22969 12.5068 4.10604 12.3653C3.46272 11.6292 3.00836 10.7635 2.77313 9.82556C2.48469 8.67552 2.53377 7.48588 2.91569 6.36985C3.31339 5.20771 4.05168 4.19604 5.03665 3.46349C5.29942 3.26807 5.57721 3.09633 5.88452 2.93932C6.1609 2.7981 6.40142 2.69558 6.68777 2.59694C6.75917 2.57234 6.83402 2.54466 6.8541 2.53543C6.90195 2.51343 6.96804 2.51331 7.01637 2.53513ZM10.6553 2.58654C11.2223 2.78887 11.7094 3.03773 12.1707 3.36078C12.4766 3.575 12.7056 3.76823 12.9886 4.05087C13.313 4.37494 13.545 4.6583 13.7793 5.01654C14.6267 6.31219 14.96 7.88994 14.7038 9.39388C14.4394 10.9471 13.5958 12.3265 12.3389 13.2613C12.0761 13.4568 11.7983 13.6285 11.491 13.7855C11.2146 13.9267 10.9741 14.0292 10.6878 14.1279C10.6164 14.1525 10.5415 14.1802 10.5214 14.1894C10.4203 14.2359 10.2991 14.1858 10.2388 14.0727L10.2172 14.0321V13.6915V13.3508L10.2424 13.2977C10.2926 13.1916 10.3347 13.1607 10.5395 13.0793C11.4109 12.7329 12.16 12.1647 12.7127 11.4309C13.0579 10.9726 13.3049 10.4907 13.4975 9.89949C13.6807 9.33728 13.7648 8.71639 13.7353 8.14341C13.6986 7.43189 13.5345 6.7917 13.2276 6.16319C12.9633 5.62207 12.6514 5.18869 12.2242 4.76893C12.0042 4.55288 11.7991 4.38292 11.5519 4.21205C11.2598 4.0102 10.8778 3.80851 10.5458 3.68087C10.4945 3.66114 10.4397 3.63949 10.4241 3.63277C10.3662 3.60786 10.2801 3.51072 10.2415 3.42674L10.2172 3.37402L10.2148 3.05696L10.2124 2.7399L10.2485 2.66762C10.2887 2.58711 10.3059 2.56762 10.3592 2.54286C10.4206 2.5143 10.4757 2.52242 10.6553 2.58654ZM8.95929 4.28274C9.05336 4.30724 9.13003 4.36284 9.16816 4.43423C9.18673 4.46899 9.18676 4.46954 9.19081 4.91109L9.19486 5.35315L9.29223 5.36755C9.93424 5.46249 10.4539 5.89883 10.6554 6.51213C10.7063 6.66719 10.7212 6.75011 10.71 6.81569C10.6939 6.90972 10.6321 6.97618 10.5385 7.00015C10.4971 7.01075 10.44 7.0124 10.1868 7.01032C9.85779 7.00762 9.86238 7.00822 9.78983 6.95814C9.74826 6.92945 9.72326 6.89016 9.68639 6.79558C9.61951 6.62399 9.54915 6.50903 9.45109 6.41105C9.34803 6.30808 9.21551 6.232 9.06505 6.18941C8.78199 6.10929 8.3659 6.1127 8.10678 6.19726C7.69845 6.33052 7.5188 6.63906 7.58523 7.09301C7.60936 7.25791 7.68787 7.39024 7.82116 7.49065C8.00838 7.63168 8.35056 7.73435 8.83381 7.79448C9.98473 7.93769 10.5656 8.24348 10.7974 8.82818C10.8601 8.98628 10.895 9.15235 10.9117 9.37226C10.9519 9.90342 10.7887 10.3717 10.437 10.7336C10.1442 11.035 9.76002 11.2317 9.27803 11.3271L9.23138 11.3363V11.7354C9.23138 12.0992 9.23005 12.1393 9.21633 12.1887C9.18811 12.2904 9.13258 12.3609 9.05168 12.3976C9.01862 12.4126 8.99758 12.4136 8.72256 12.4138C8.44133 12.414 8.42673 12.4132 8.38179 12.3965C8.29818 12.3653 8.24056 12.3191 8.20632 12.2558C8.18904 12.2238 8.18875 12.2168 8.18649 11.7803L8.1842 11.3373L8.08507 11.319C7.58766 11.227 7.21085 11.0525 6.92174 10.7804C6.77982 10.6468 6.66787 10.4926 6.57376 10.301C6.50521 10.1615 6.46735 10.0567 6.42722 9.89543C6.3735 9.67958 6.38093 9.59264 6.4598 9.5141C6.52942 9.44477 6.53363 9.44417 6.92783 9.44695L7.26383 9.44932L7.30846 9.47445C7.3344 9.48906 7.36586 9.51623 7.3836 9.53934C7.41498 9.58023 7.41755 9.58723 7.46654 9.76509C7.58516 10.1958 7.87235 10.428 8.38104 10.5044C8.51357 10.5244 8.80932 10.5287 8.9255 10.5124C9.37951 10.4489 9.70862 10.199 9.80685 9.84312C9.84696 9.69783 9.84703 9.50014 9.80701 9.35626C9.74618 9.13752 9.58032 8.98415 9.28552 8.87407C9.07708 8.79623 8.73455 8.71782 8.43219 8.67873C7.9422 8.61537 7.48481 8.48263 7.2034 8.3221C7.06912 8.2455 6.98907 8.18501 6.88644 8.08258C6.62045 7.81712 6.49639 7.47583 6.49432 7.00379C6.49355 6.82931 6.50303 6.74133 6.53803 6.59823C6.67696 6.03018 7.13218 5.58884 7.77189 5.40202C7.86924 5.37358 8.02694 5.33856 8.10156 5.32881L8.14416 5.32324V4.94042C8.14416 4.62727 8.14635 4.54916 8.15626 4.51115C8.19016 4.38105 8.27063 4.29676 8.37831 4.27857C8.39901 4.27508 8.52747 4.27178 8.66375 4.27127C8.86256 4.2705 8.92097 4.27277 8.95929 4.28274Z" fill="#1E1E1E"/>
</svg>
