

<svg width="33" height="33" viewBox="0 0 33 33" fill="none" xmlns="http://www.w3.org/2000/svg">
<path fill-rule="evenodd" clip-rule="evenodd" d="M15.8636 0.157305C15.8196 0.160457 15.6576 0.170842 15.5035 0.180378C14.1659 0.263198 12.7737 0.534937 11.4862 0.964523C9.94717 1.478 8.44931 2.24875 7.14601 3.19785C6.46023 3.69726 5.89394 4.18416 5.25133 4.82694C4.64999 5.42842 4.24566 5.89019 3.78292 6.50396C2.61896 8.0478 1.73364 9.81419 1.20298 11.6514C0.887227 12.7446 0.706175 13.7525 0.607806 14.9644C0.572546 15.3987 0.567088 16.8089 0.599067 17.2205C0.773957 19.4716 1.2847 21.3674 2.22851 23.2687C2.86378 24.5485 3.59497 25.6404 4.54834 26.7329C5.00737 27.2589 5.83634 28.0599 6.39648 28.5186C8.41956 30.1754 10.77 31.2979 13.3108 31.8205C14.7922 32.1253 16.3828 32.2228 17.8803 32.1008C21.1376 31.8354 24.2219 30.5967 26.7126 28.5538C27.4911 27.9152 28.3377 27.0717 28.9497 26.3249C30.0439 24.9895 30.885 23.5491 31.5095 21.9409C32.0867 20.4545 32.4122 18.9873 32.5497 17.2525C32.5778 16.8972 32.5877 15.8 32.5665 15.3804C32.4672 13.4134 32.0491 11.5887 31.2915 9.81589C31.1296 9.43703 30.7652 8.69687 30.5629 8.33605C29.9867 7.30838 29.3401 6.39808 28.5509 5.5034C28.2976 5.2163 27.5359 4.45344 27.2515 4.20202C26.1381 3.21785 25.0256 2.46499 23.7303 1.81914C21.865 0.88916 19.9401 0.361282 17.7763 0.186347C17.4865 0.162922 16.0829 0.141609 15.8636 0.157305ZM13.2788 4.8532C13.3719 4.89527 13.4627 4.98345 13.5162 5.08398L13.5589 5.16398V5.83601V6.50804L13.5092 6.61279C13.4152 6.81123 13.3162 6.8893 13.0028 7.01209C11.3851 7.6461 10.0138 8.62523 8.93565 9.91618C8.11169 10.9027 7.51903 11.9933 7.08786 13.3163C6.45663 15.2532 6.44934 17.3416 7.06696 19.3101C7.21994 19.7977 7.40381 20.252 7.64592 20.7406C8.01382 21.4832 8.4152 22.099 8.95044 22.7422C9.2009 23.0432 9.85061 23.6963 10.1337 23.9316C10.7518 24.4453 11.3964 24.8712 12.0582 25.2027C12.3301 25.339 12.7064 25.5063 12.9432 25.5963C13.053 25.638 13.1571 25.6797 13.1747 25.6889C13.2815 25.7445 13.4379 25.9241 13.5124 26.0764L13.5669 26.188V26.7844V27.3809L13.4927 27.5257C13.4147 27.6781 13.3586 27.7356 13.2508 27.7741C13.1338 27.8158 13.0649 27.8033 12.6866 27.6714C11.1718 27.1431 9.91625 26.4277 8.72292 25.4131C8.43758 25.1705 7.7816 24.5239 7.53769 24.2448C6.26864 22.7927 5.37234 21.0849 4.9083 19.2348C4.33931 16.9661 4.43613 14.6193 5.18953 12.4178C5.97407 10.1253 7.43046 8.12961 9.37347 6.68454C9.89182 6.29904 10.4398 5.96025 11.046 5.65051C11.5912 5.37194 12.0657 5.16971 12.6306 4.97512C12.7714 4.92659 12.9191 4.872 12.9587 4.85379C13.0531 4.81038 13.1835 4.81014 13.2788 4.8532ZM20.4572 4.95461C21.5757 5.35373 22.5365 5.84465 23.4465 6.48193C24.05 6.9045 24.5018 7.28569 25.0599 7.84323C25.6999 8.48252 26.1577 9.04149 26.6198 9.74818C28.2915 12.3041 28.9488 15.4164 28.4436 18.3832C27.9218 21.4471 26.2578 24.1683 23.7783 26.0124C23.2599 26.3979 22.712 26.7367 22.1057 27.0464C21.5605 27.325 21.0861 27.5272 20.5212 27.7218C20.3804 27.7703 20.2327 27.8249 20.1931 27.8431C19.9936 27.9348 19.7544 27.8361 19.6355 27.6129L19.5929 27.5329V26.8609V26.1889L19.6426 26.0841C19.7418 25.8748 19.8247 25.8139 20.2287 25.6532C21.9477 24.9699 23.4254 23.849 24.5157 22.4015C25.1967 21.4974 25.6838 20.5468 26.0639 19.3806C26.4253 18.2715 26.5912 17.0467 26.5329 15.9164C26.4606 14.5128 26.1368 13.25 25.5313 12.0101C25.0101 10.9427 24.3949 10.0878 23.552 9.25972C23.1182 8.83353 22.7134 8.49827 22.2258 8.1612C21.6497 7.763 20.8961 7.36515 20.2411 7.11334C20.1399 7.07443 20.0318 7.03172 20.001 7.01846C19.8869 6.96932 19.7171 6.7777 19.6408 6.61204L19.5929 6.50804L19.5882 5.88259L19.5835 5.25714L19.6547 5.11456C19.7339 4.95573 19.768 4.91728 19.873 4.86845C19.9941 4.81211 20.1028 4.82813 20.4572 4.95461ZM17.1115 8.30064C17.2971 8.34896 17.4483 8.45865 17.5235 8.59947C17.5602 8.66805 17.5602 8.66914 17.5682 9.54017L17.5762 10.4122L17.7683 10.4406C19.0348 10.6279 20.0599 11.4886 20.4573 12.6985C20.5578 13.0043 20.5872 13.1679 20.5651 13.2973C20.5333 13.4828 20.4114 13.6139 20.2268 13.6612C20.1452 13.6821 20.0324 13.6853 19.533 13.6812C18.8839 13.6759 18.893 13.6771 18.7499 13.5783C18.6679 13.5217 18.6186 13.4442 18.5458 13.2576C18.4139 12.9191 18.2751 12.6923 18.0817 12.4991C17.8784 12.2959 17.617 12.1459 17.3201 12.0619C16.7618 11.9038 15.941 11.9105 15.4298 12.0773C14.6243 12.3402 14.2699 12.9489 14.4009 13.8443C14.4485 14.1696 14.6034 14.4307 14.8664 14.6287C15.2357 14.907 15.9107 15.1095 16.864 15.2281C19.1344 15.5106 20.2802 16.1138 20.7376 17.2673C20.8612 17.5791 20.93 17.9067 20.9629 18.3405C21.0423 19.3883 20.7202 20.312 20.0266 21.026C19.449 21.6205 18.6911 22.0086 17.7403 22.1968L17.6482 22.215V23.0022C17.6482 23.7199 17.6456 23.7989 17.6186 23.8965C17.5629 24.0971 17.4533 24.2361 17.2938 24.3085C17.2286 24.3381 17.187 24.3401 16.6445 24.3404C16.0898 24.3408 16.0609 24.3393 15.9723 24.3063C15.8074 24.2449 15.6937 24.1537 15.6262 24.0288C15.5921 23.9657 15.5915 23.9519 15.587 23.0909L15.5825 22.217L15.387 22.1808C14.4058 21.9993 13.6624 21.6552 13.0921 21.1183C12.8122 20.8548 12.5913 20.5505 12.4057 20.1726C12.2704 19.8974 12.1957 19.6906 12.1166 19.3726C12.0106 18.9468 12.0253 18.7753 12.1809 18.6203C12.3182 18.4836 12.3265 18.4824 13.1041 18.4879L13.7669 18.4925L13.855 18.5421C13.9061 18.5709 13.9682 18.6246 14.0032 18.6701C14.0651 18.7508 14.0702 18.7646 14.1668 19.1155C14.4008 19.9651 14.9673 20.4232 15.9708 20.574C16.2322 20.6132 16.8157 20.6218 17.0449 20.5897C17.9405 20.4644 18.5897 19.9713 18.7835 19.2694C18.8626 18.9828 18.8627 18.5928 18.7838 18.309C18.6638 17.8775 18.3366 17.5749 17.755 17.3578C17.3439 17.2042 16.6682 17.0496 16.0717 16.9724C15.1051 16.8475 14.2029 16.5856 13.6477 16.2689C13.3828 16.1178 13.2249 15.9985 13.0225 15.7964C12.4978 15.2728 12.253 14.5995 12.2489 13.6683C12.2474 13.3242 12.2661 13.1506 12.3352 12.8683C12.6092 11.7477 13.5072 10.8771 14.7692 10.5086C14.9612 10.4525 15.2723 10.3834 15.4195 10.3642L15.5035 10.3532V9.59803C15.5035 8.98027 15.5079 8.82618 15.5274 8.75122C15.5943 8.49457 15.753 8.32829 15.9654 8.29242C16.0063 8.28552 16.2597 8.27903 16.5285 8.278C16.9207 8.27648 17.0359 8.28096 17.1115 8.30064Z" fill="#1E1E1E"/>
</svg>
